<svg xmlns="http://www.w3.org/2000/svg" viewBox="0 0 39.04 43.48"><defs><style>.cls-1{fill:#61c4c2;}</style></defs><g id="Layer_2" data-name="Layer 2"><g id="Layer_1-2" data-name="Layer 1"><path class="cls-1" d="M7.21,24.36A3.75,3.75,0,0,1,6,21.28a4.42,4.42,0,0,1,1.23-3.36,5.14,5.14,0,0,1,3.7-1.18h5.49V25.4H10.83a5.54,5.54,0,0,1-3.62-1m15.45-6.28h5.55a5.59,5.59,0,0,1,3.63,1,3.79,3.79,0,0,1,1.24,3.08,4.42,4.42,0,0,1-1.23,3.36,5.12,5.12,0,0,1-3.7,1.18H22.66Zm0,12.82h4a6,6,0,0,1,3.69,1,3.43,3.43,0,0,1,1.29,2.89,3.6,3.6,0,0,1-1.3,3.07,6.36,6.36,0,0,1-3.88,1H22.66ZM16.38,12.58h-4a6,6,0,0,1-3.69-1A3.43,3.43,0,0,1,7.41,8.7a3.63,3.63,0,0,1,1.3-3.07,6.36,6.36,0,0,1,3.88-1h3.79Zm-15,4.22A7.36,7.36,0,0,0,0,21.28,7.78,7.78,0,0,0,2.82,27.8Q5.65,30,10.83,30h5.85V43.48h9.77c3.51,0,6.24-.69,8.21-2.07a7,7,0,0,0,3-6.15,6.7,6.7,0,0,0-1.06-3.7,6.51,6.51,0,0,0-3.12-2.45,6.38,6.38,0,0,0,4.2-2.43A7.36,7.36,0,0,0,39,22.2a7.79,7.79,0,0,0-2.82-6.52q-2.84-2.22-8-2.22H22.36V0H12.59Q7.34,0,4.38,2.07A7.06,7.06,0,0,0,1.43,8.23,6.62,6.62,0,0,0,2.5,11.92a6.53,6.53,0,0,0,3.11,2.45,6.49,6.49,0,0,0-4.2,2.43"/></g></g></svg>