<svg xmlns="http://www.w3.org/2000/svg" viewBox="0 0 136.96 28.65"><defs><style>.cls-1{fill:#40296e;}.cls-2{fill:#61c4c2;}.cls-3{fill:#808285;}</style></defs><g id="Layer_2" data-name="Layer 2"><g id="Layer_1-2" data-name="Layer 1"><path class="cls-1" d="M15.72,13.07V18h3.2A3.19,3.19,0,0,0,21,17.43a2.17,2.17,0,0,0,.72-1.77A2.54,2.54,0,0,0,21,13.74a3,3,0,0,0-2.14-.67Zm0-2.38H18a3.46,3.46,0,0,0,2.13-.57,2,2,0,0,0,.74-1.65,2.07,2.07,0,0,0-.75-1.76,3.65,3.65,0,0,0-2.23-.56H15.72Zm-3.44,10V3.49h5.63a8.19,8.19,0,0,1,4.73,1.19A4,4,0,0,1,24.33,8.2a3.63,3.63,0,0,1-2.4,3.51,3.71,3.71,0,0,1,2.42,1.4,4.17,4.17,0,0,1,.81,2.55,4.44,4.44,0,0,1-1.63,3.74,7.37,7.37,0,0,1-4.61,1.27Z"/><path class="cls-1" d="M30.94,18.37a3,3,0,0,0,1.61-.45,2.41,2.41,0,0,0,1-1V15.07H31.58a2.32,2.32,0,0,0-1.66.55A1.78,1.78,0,0,0,29.36,17a1.32,1.32,0,0,0,.42,1,1.64,1.64,0,0,0,1.16.39m3.15,2.3a9.07,9.07,0,0,1-.32-.92,6.81,6.81,0,0,1-.2-1,4.63,4.63,0,0,1-1.4,1.55,3.5,3.5,0,0,1-2.08.61,4.32,4.32,0,0,1-3.09-1,3.7,3.7,0,0,1-1.08-2.81,3.38,3.38,0,0,1,1.44-2.91,7.22,7.22,0,0,1,4.22-1h1.93v-1A2,2,0,0,0,33,10.69a1.89,1.89,0,0,0-1.44-.51,1.87,1.87,0,0,0-1.29.41,1.42,1.42,0,0,0-.45,1.11H26.53l0-.07a3.21,3.21,0,0,1,1.41-2.79,6.12,6.12,0,0,1,3.9-1.17,5.72,5.72,0,0,1,3.72,1.15A4.06,4.06,0,0,1,37,12.14v5.27a10.08,10.08,0,0,0,.13,1.69,9.17,9.17,0,0,0,.43,1.57Z"/><path class="cls-1" d="M46.77,14.39a6.7,6.7,0,0,0-.54-3,1.93,1.93,0,0,0-1.87-1.09,2.61,2.61,0,0,0-1.36.33,2.38,2.38,0,0,0-.87,1V17a2.16,2.16,0,0,0,.88.89,2.86,2.86,0,0,0,1.37.31,2,2,0,0,0,1.86-.94,5.4,5.4,0,0,0,.53-2.66Zm3.44.25a7.45,7.45,0,0,1-1.28,4.56,4.3,4.3,0,0,1-3.68,1.71,3.83,3.83,0,0,1-2-.47,4,4,0,0,1-1.41-1.38l-.28,1.61H38.69V2.27h3.44v7a4,4,0,0,1,1.32-1.18,3.8,3.8,0,0,1,1.78-.41,4.22,4.22,0,0,1,3.7,1.83,8.4,8.4,0,0,1,1.28,4.89Z"/><path class="cls-1" d="M60.72,11.78h3.13A2.88,2.88,0,0,0,66,11a2.81,2.81,0,0,0,.74-2A2.89,2.89,0,0,0,66,7a2.83,2.83,0,0,0-2.18-.8H60.72Zm0,2.66v6.23H57.28V3.49h6.57A6.77,6.77,0,0,1,68.5,5a5,5,0,0,1,1.7,4,5,5,0,0,1-1.7,4,6.77,6.77,0,0,1-4.65,1.5Z"/><path class="cls-1" d="M75.29,9.52a4.33,4.33,0,0,1,1.47-1.36,3.86,3.86,0,0,1,1.94-.49A3.93,3.93,0,0,1,81.83,9,6.21,6.21,0,0,1,83,13.09v7.58H79.52v-7.6A3.55,3.55,0,0,0,79,11a1.68,1.68,0,0,0-1.43-.62,3.38,3.38,0,0,0-1.37.26,2.38,2.38,0,0,0-.95.72v9.35H71.84V2.27h3.45Z"/><path class="cls-1" d="M89.45,18.37a2.94,2.94,0,0,0,1.61-.45,2.41,2.41,0,0,0,1-1V15.07H90.09a2.32,2.32,0,0,0-1.66.55A1.78,1.78,0,0,0,87.87,17a1.32,1.32,0,0,0,.42,1,1.64,1.64,0,0,0,1.16.39m3.15,2.3a9.07,9.07,0,0,1-.32-.92,6.81,6.81,0,0,1-.2-1,4.63,4.63,0,0,1-1.4,1.55,3.5,3.5,0,0,1-2.08.61,4.32,4.32,0,0,1-3.09-1,3.7,3.7,0,0,1-1.08-2.81,3.38,3.38,0,0,1,1.44-2.91,7.22,7.22,0,0,1,4.22-1H92v-1a2,2,0,0,0-.48-1.42,1.89,1.89,0,0,0-1.44-.51,1.87,1.87,0,0,0-1.29.41,1.42,1.42,0,0,0-.45,1.11H85l0-.07a3.21,3.21,0,0,1,1.41-2.79,6.12,6.12,0,0,1,3.9-1.17,5.72,5.72,0,0,1,3.72,1.15,4.06,4.06,0,0,1,1.42,3.32v5.27a10.08,10.08,0,0,0,.13,1.69A9.17,9.17,0,0,0,96,20.67Z"/><path class="cls-1" d="M104.28,10.86l-1.26,0a2.23,2.23,0,0,0-1.26.32A2,2,0,0,0,101,12v8.62H97.57V7.9h3.19l.16,1.89a4,4,0,0,1,1.16-1.56,2.56,2.56,0,0,1,1.65-.56,2.29,2.29,0,0,1,.47,0l.45.1Z"/><path class="cls-1" d="M108.79,7.9l.14,1.69a4.27,4.27,0,0,1,1.54-1.42,4.34,4.34,0,0,1,2.14-.5,3.93,3.93,0,0,1,2.1.54A3.36,3.36,0,0,1,116,9.85a4.36,4.36,0,0,1,1.53-1.6,4.13,4.13,0,0,1,2.22-.58,3.62,3.62,0,0,1,3,1.34,6.41,6.41,0,0,1,1.09,4.08v7.58H120.4V13.08a3.52,3.52,0,0,0-.47-2.13,1.67,1.67,0,0,0-1.4-.6,2.28,2.28,0,0,0-2.12,1.22c0,.15,0,.28,0,.39s0,.21,0,.32v8.39H113V13.08a3.65,3.65,0,0,0-.47-2.12,1.68,1.68,0,0,0-1.42-.61,2.64,2.64,0,0,0-1.22.26,2.42,2.42,0,0,0-.87.75v9.31h-3.43V7.9Z"/><path class="cls-1" d="M130.38,18.37a3,3,0,0,0,1.61-.45,2.41,2.41,0,0,0,1-1V15.07H131a2.32,2.32,0,0,0-1.66.55A1.78,1.78,0,0,0,128.8,17a1.32,1.32,0,0,0,.42,1,1.64,1.64,0,0,0,1.16.39m3.15,2.3a9.07,9.07,0,0,1-.32-.92,6.81,6.81,0,0,1-.2-1,4.63,4.63,0,0,1-1.4,1.55,3.52,3.52,0,0,1-2.08.61,4.32,4.32,0,0,1-3.09-1,3.7,3.7,0,0,1-1.08-2.81,3.38,3.38,0,0,1,1.44-2.91,7.22,7.22,0,0,1,4.22-1H133v-1a2,2,0,0,0-.48-1.42,1.89,1.89,0,0,0-1.44-.51,1.87,1.87,0,0,0-1.29.41,1.42,1.42,0,0,0-.45,1.11H126l0-.07a3.21,3.21,0,0,1,1.41-2.79,6.12,6.12,0,0,1,3.9-1.17A5.72,5.72,0,0,1,135,8.82a4.06,4.06,0,0,1,1.42,3.32v5.27a10.08,10.08,0,0,0,.13,1.69,9.17,9.17,0,0,0,.43,1.57Z"/><path class="cls-2" d="M8.52,6.48a1.5,1.5,0,0,1-1,.27H6.07V4.45H7.54a1.43,1.43,0,0,1,1,.31,1.19,1.19,0,0,1,.33.9,1,1,0,0,1-.34.82m-4.13.63H2.92a1.39,1.39,0,0,1-1-.31,1.22,1.22,0,0,1-.32-.9,1,1,0,0,1,.33-.82,1.51,1.51,0,0,1,1-.27H4.39Zm0,3.22h-1a1.77,1.77,0,0,1-1-.26A1,1,0,0,1,2,9.25a.91.91,0,0,1,.34-.77,1.64,1.64,0,0,1,1-.26H4.39Zm1.68-9.1h1a1.68,1.68,0,0,1,1,.27.94.94,0,0,1,.35.81.92.92,0,0,1-.35.77,1.57,1.57,0,0,1-1,.26H6.07Zm4,3.24A1.7,1.7,0,0,0,9,3.82a1.71,1.71,0,0,0,.83-.65,1.76,1.76,0,0,0,.29-1A1.86,1.86,0,0,0,9.28.55,3.79,3.79,0,0,0,7.08,0H4.47V3.58H2.9a3.43,3.43,0,0,0-2.14.59A2,2,0,0,0,0,5.9,1.94,1.94,0,0,0,.38,7.09a1.72,1.72,0,0,0,1.12.65,1.76,1.76,0,0,0-.83.65,1.77,1.77,0,0,0-.29,1A1.88,1.88,0,0,0,1.17,11a3.79,3.79,0,0,0,2.2.55H6V8H7.55A3.4,3.4,0,0,0,9.7,7.39a2.06,2.06,0,0,0,.75-1.73,1.9,1.9,0,0,0-.38-1.19"/><path class="cls-3" d="M72,27.46v-.15a.33.33,0,0,0,.23-.07.4.4,0,0,0,.07-.2V24.9c0-.08,0-.14,0-.2a.53.53,0,0,1,0-.14H72v-.19h1a1.47,1.47,0,0,1,.79.18.58.58,0,0,1,.28.57.48.48,0,0,1-.08.28.64.64,0,0,1-.24.25,1,1,0,0,1-.4.15h0a1.06,1.06,0,0,1,.73.23.71.71,0,0,1,.24.56.78.78,0,0,1-.13.46.91.91,0,0,1-.37.3,1.47,1.47,0,0,1-.53.1Zm.67-.18h.47a.81.81,0,0,0,.55-.17.6.6,0,0,0,.21-.5.72.72,0,0,0-.11-.42.6.6,0,0,0-.28-.21,1.06,1.06,0,0,0-.37-.06h-.45v1.2C72.7,27.2,72.7,27.24,72.69,27.28Zm0-1.51H73a.7.7,0,0,0,.39-.11.51.51,0,0,0,.21-.25.56.56,0,0,0,.06-.31.59.59,0,0,0-.1-.36.56.56,0,0,0-.26-.17,1,1,0,0,0-.29,0,.43.43,0,0,0-.22,0,.16.16,0,0,0-.09.13.94.94,0,0,0,0,.26Z"/><path class="cls-3" d="M76.05,27.46a.83.83,0,0,1,0-.13s0-.08,0-.12a1,1,0,0,1-.33.23.78.78,0,0,1-.37.09.7.7,0,0,1-.49-.15.5.5,0,0,1-.17-.37.52.52,0,0,1,.13-.35,1,1,0,0,1,.33-.25,1.81,1.81,0,0,1,.43-.14,2.45,2.45,0,0,1,.46,0V26a1.36,1.36,0,0,0,0-.29.55.55,0,0,0-.11-.23.45.45,0,0,0-.29-.09.63.63,0,0,0-.26,0,.34.34,0,0,0-.19.18.12.12,0,0,1,0,.08.28.28,0,0,1,0,.09.24.24,0,0,1,0,.12.15.15,0,0,1-.15.06.16.16,0,0,1-.14-.06.2.2,0,0,1,0-.15.36.36,0,0,1,.11-.27.78.78,0,0,1,.31-.19,1.25,1.25,0,0,1,.45-.07.68.68,0,0,1,.54.19.87.87,0,0,1,.17.62v1.13c0,.05,0,.1,0,.16h.32v.19Zm0-1.08a1.87,1.87,0,0,0-.32,0,1,1,0,0,0-.3.1.66.66,0,0,0-.23.17.45.45,0,0,0-.08.26.34.34,0,0,0,.11.25.41.41,0,0,0,.24.08.62.62,0,0,0,.31-.07A1.48,1.48,0,0,0,76,27a.37.37,0,0,1,0-.11v-.26A2.26,2.26,0,0,0,76,26.38Z"/><path class="cls-3" d="M77,27.33a.26.26,0,0,0,.19-.07.47.47,0,0,0,.06-.19,2.35,2.35,0,0,0,0-.28V25.65s0-.09,0-.15h-.32v-.19h.3a.76.76,0,0,0,.16-.05.2.2,0,0,0,.09-.06h.13V27a.81.81,0,0,1,0,.16.71.71,0,0,1,0,.14h.28v.18H77Zm.42-2.55a.23.23,0,0,1-.16-.08.24.24,0,0,1-.07-.18.26.26,0,0,1,.07-.19.22.22,0,0,1,.17-.07.2.2,0,0,1,.16.07.26.26,0,0,1,.07.19.24.24,0,0,1-.07.18A.23.23,0,0,1,77.4,24.78Z"/><path class="cls-3" d="M79,27.53a.76.76,0,0,1-.21,0,.52.52,0,0,1-.19-.11.66.66,0,0,1-.15-.25,1.5,1.5,0,0,1,0-.42V25.44H78.1v-.19a.35.35,0,0,0,.23-.09.92.92,0,0,0,.22-.22,1.07,1.07,0,0,0,.13-.31h.15v.62h.74v.17h-.74v1.22a1.65,1.65,0,0,0,0,.34.42.42,0,0,0,.11.21.29.29,0,0,0,.19.07.48.48,0,0,0,.23-.07.52.52,0,0,0,.19-.2l.12.1a.9.9,0,0,1-.19.23.68.68,0,0,1-.18.13l-.16.05Z"/><path class="cls-3" d="M82.4,27.46a.83.83,0,0,1,0-.13s0-.08,0-.12a1.12,1.12,0,0,1-.32.23.81.81,0,0,1-.37.09.71.71,0,0,1-.5-.15A.49.49,0,0,1,81,27a.51.51,0,0,1,.12-.35,1.2,1.2,0,0,1,.33-.25,2,2,0,0,1,.43-.14,2.45,2.45,0,0,1,.46,0V26a1.36,1.36,0,0,0,0-.29.38.38,0,0,0-.11-.23.42.42,0,0,0-.28-.09.6.6,0,0,0-.26,0,.35.35,0,0,0-.2.18.22.22,0,0,1,0,.08s0,.06,0,.09a.28.28,0,0,1-.05.12.15.15,0,0,1-.15.06.17.17,0,0,1-.14-.06.25.25,0,0,1,0-.15.4.4,0,0,1,.11-.27.86.86,0,0,1,.31-.19,1.25,1.25,0,0,1,.45-.07.71.71,0,0,1,.55.19,1,1,0,0,1,.17.62v.66c0,.11,0,.22,0,.33v.14c0,.05,0,.1,0,.16H83v.19Zm0-1.08a1.65,1.65,0,0,0-.31,0,1,1,0,0,0-.31.1.54.54,0,0,0-.22.17.41.41,0,0,0,0,.51.41.41,0,0,0,.24.08.62.62,0,0,0,.31-.07,1.48,1.48,0,0,0,.27-.19v-.64Z"/><path class="cls-3" d="M83.29,27.33a.26.26,0,0,0,.19-.07.47.47,0,0,0,.06-.19c0-.08,0-.17,0-.28V24.57a.86.86,0,0,1,0-.15h-.31v-.18l.3,0a.43.43,0,0,0,.16,0,.19.19,0,0,0,.09-.05h.13v3s0,.09,0,.14h.28v.18h-.9Z"/><path class="cls-3" d="M85.73,27.46v-.15a.31.31,0,0,0,.23-.07A.32.32,0,0,0,86,27a2.62,2.62,0,0,0,0-.29V24.7c0-.06,0-.11,0-.14h-.32v-.19h1a1.53,1.53,0,0,1,.8.18.62.62,0,0,1,.28.57.49.49,0,0,1-.09.28.64.64,0,0,1-.24.25.9.9,0,0,1-.4.15h0a1,1,0,0,1,.73.23.72.72,0,0,1,.25.56.78.78,0,0,1-.14.46.85.85,0,0,1-.37.3,1.43,1.43,0,0,1-.53.1Zm.68-.18h.46a.81.81,0,0,0,.55-.17.6.6,0,0,0,.21-.5.72.72,0,0,0-.11-.42.62.62,0,0,0-.27-.21,1.16,1.16,0,0,0-.38-.06h-.45v1.2C86.42,27.2,86.41,27.24,86.41,27.28Zm0-1.51h.32a.76.76,0,0,0,.4-.11.64.64,0,0,0,.21-.25.81.81,0,0,0,.06-.31.51.51,0,0,0-.36-.53,1.08,1.08,0,0,0-.3,0,.43.43,0,0,0-.22,0,.22.22,0,0,0-.09.13,1.61,1.61,0,0,0,0,.26Z"/><path class="cls-3" d="M89.76,27.46a.83.83,0,0,1,0-.13s0-.08,0-.12a1,1,0,0,1-.33.23.74.74,0,0,1-.36.09.71.71,0,0,1-.5-.15.49.49,0,0,1-.16-.37.51.51,0,0,1,.12-.35,1.06,1.06,0,0,1,.33-.25,2,2,0,0,1,.43-.14,2.45,2.45,0,0,1,.46,0V26a1.36,1.36,0,0,0,0-.29.38.38,0,0,0-.11-.23.42.42,0,0,0-.28-.09.6.6,0,0,0-.26,0,.35.35,0,0,0-.2.18.22.22,0,0,1,0,.08s0,.06,0,.09a.28.28,0,0,1-.05.12.15.15,0,0,1-.15.06.17.17,0,0,1-.14-.06.25.25,0,0,1,0-.15.4.4,0,0,1,.11-.27.86.86,0,0,1,.31-.19,1.25,1.25,0,0,1,.45-.07.71.71,0,0,1,.55.19,1,1,0,0,1,.17.62v.66c0,.11,0,.22,0,.33v.14c0,.05,0,.1,0,.16h.31v.19Zm0-1.08a1.87,1.87,0,0,0-.32,0,1.06,1.06,0,0,0-.3.1.54.54,0,0,0-.22.17.41.41,0,0,0,0,.51.41.41,0,0,0,.24.08.62.62,0,0,0,.31-.07,1.48,1.48,0,0,0,.27-.19s0-.07,0-.11v-.12a1.13,1.13,0,0,0,0-.14Z"/><path class="cls-3" d="M91.49,27.53a.76.76,0,0,1-.21,0,.52.52,0,0,1-.19-.11.66.66,0,0,1-.15-.25,1.5,1.5,0,0,1,0-.42V25.44h-.34v-.19a.37.37,0,0,0,.23-.09A.92.92,0,0,0,91,25a1.07,1.07,0,0,0,.13-.31h.15v.62H92v.17h-.74v1.22a1.65,1.65,0,0,0,0,.34.42.42,0,0,0,.11.21.29.29,0,0,0,.19.07.48.48,0,0,0,.23-.07A.61.61,0,0,0,92,27l.12.1a1.16,1.16,0,0,1-.19.23.68.68,0,0,1-.18.13l-.16.05Z"/><path class="cls-3" d="M93.23,27.53a.76.76,0,0,1-.21,0,.52.52,0,0,1-.19-.11.66.66,0,0,1-.15-.25,1.5,1.5,0,0,1-.05-.42V25.44H92.3v-.19a.4.4,0,0,0,.24-.09.89.89,0,0,0,.21-.22,1.07,1.07,0,0,0,.13-.31H93v.62h.74v.17H93v1.22a1.65,1.65,0,0,0,0,.34.42.42,0,0,0,.11.21.29.29,0,0,0,.19.07.45.45,0,0,0,.23-.07.64.64,0,0,0,.2-.2l.11.1a.9.9,0,0,1-.19.23.68.68,0,0,1-.18.13l-.16.05Z"/><path class="cls-3" d="M95.17,27.53a1.15,1.15,0,0,1-.55-.14,1,1,0,0,1-.38-.41,1.21,1.21,0,0,1-.14-.62,1.15,1.15,0,0,1,.14-.57,1.1,1.1,0,0,1,.39-.44,1,1,0,0,1,.58-.16,1,1,0,0,1,.34.06.75.75,0,0,1,.28.18.79.79,0,0,1,.2.3,1.14,1.14,0,0,1,.07.43l-1.55,0a2,2,0,0,0,.07.58.84.84,0,0,0,.24.4.64.64,0,0,0,.42.13,1,1,0,0,0,.28,0,1.3,1.3,0,0,0,.26-.14.7.7,0,0,0,.2-.18l.11.09a1,1,0,0,1-.29.29,1,1,0,0,1-.34.16A1.39,1.39,0,0,1,95.17,27.53ZM94.56,26h1.13a1,1,0,0,0,0-.3.58.58,0,0,0-.15-.25.43.43,0,0,0-.28-.09.6.6,0,0,0-.42.15A.81.81,0,0,0,94.56,26Z"/><path class="cls-3" d="M96.49,27.33a.26.26,0,0,0,.19-.07.36.36,0,0,0,.06-.19,2.35,2.35,0,0,0,0-.28V25.65a.77.77,0,0,1,0-.15h-.31v-.18h.13a.72.72,0,0,0,.26,0l.12-.09h.13c0,.05,0,.11,0,.18v.26a1.68,1.68,0,0,1,.18-.21,1.1,1.1,0,0,1,.26-.18.66.66,0,0,1,.3-.07.38.38,0,0,1,.22.06.27.27,0,0,1,.09.22.24.24,0,0,1-.09.17.25.25,0,0,1-.13,0,.22.22,0,0,1-.15-.08.22.22,0,0,1,0-.17.46.46,0,0,0-.22.06.87.87,0,0,0-.22.17.94.94,0,0,0-.18.25v1.24s0,.09,0,.14h.27v.18h-.9Z"/><path class="cls-3" d="M98.16,28.65a.37.37,0,0,1-.26-.07.23.23,0,0,1-.09-.18.2.2,0,0,1,.06-.14A.15.15,0,0,1,98,28.2a.16.16,0,0,1,.16.06.41.41,0,0,1,0,.12v0s0,0,0,0a.27.27,0,0,0,.12,0,.22.22,0,0,0,.19-.09.57.57,0,0,0,.09-.24,2.64,2.64,0,0,0,0-.28V25.65s0-.09,0-.15h-.31v-.19h.3a.76.76,0,0,0,.16-.05.2.2,0,0,0,.09-.06H99v2.26a1.8,1.8,0,0,1-.11.67.88.88,0,0,1-.3.39A.8.8,0,0,1,98.16,28.65Zm.62-3.87a.23.23,0,0,1-.16-.08.24.24,0,0,1-.07-.18.26.26,0,0,1,.07-.19.24.24,0,0,1,.34,0,.31.31,0,0,1,.06.19.24.24,0,0,1-.07.18A.23.23,0,0,1,98.78,24.78Z"/><path class="cls-3" d="M100.61,27.53a1.12,1.12,0,0,1-.55-.14,1,1,0,0,1-.38-.41,1.21,1.21,0,0,1-.15-.62,1.26,1.26,0,0,1,.14-.57,1.28,1.28,0,0,1,.39-.44,1,1,0,0,1,.58-.16,1,1,0,0,1,.35.06.75.75,0,0,1,.28.18.93.93,0,0,1,.2.3,1.38,1.38,0,0,1,.07.43l-1.55,0a2,2,0,0,0,.07.58.84.84,0,0,0,.24.4.59.59,0,0,0,.41.13.9.9,0,0,0,.28,0,1.15,1.15,0,0,0,.27-.14.7.7,0,0,0,.2-.18l.1.09a1,1,0,0,1-.28.29,1,1,0,0,1-.35.16A1.25,1.25,0,0,1,100.61,27.53ZM100,26h1.12a1,1,0,0,0,0-.3.51.51,0,0,0-.16-.25.4.4,0,0,0-.27-.09.64.64,0,0,0-.43.15A.86.86,0,0,0,100,26Z"/><path class="cls-3" d="M103,27.53a1.1,1.1,0,0,1-.55-.14A1,1,0,0,1,102,27a1.32,1.32,0,0,1-.14-.62,1.26,1.26,0,0,1,.14-.57,1.1,1.1,0,0,1,.39-.44,1.1,1.1,0,0,1,.93-.1.84.84,0,0,1,.28.18.77.77,0,0,1,.19.3,1.14,1.14,0,0,1,.07.43l-1.55,0a2,2,0,0,0,.08.58.83.83,0,0,0,.23.4.64.64,0,0,0,.42.13,1,1,0,0,0,.28,0,1.38,1.38,0,0,0,.27-.14.66.66,0,0,0,.19-.18l.11.09a.89.89,0,0,1-.29.29,1,1,0,0,1-.34.16A1.39,1.39,0,0,1,103,27.53ZM102.37,26h1.12a1,1,0,0,0,0-.3.58.58,0,0,0-.15-.25.41.41,0,0,0-.28-.09.6.6,0,0,0-.42.15A.8.8,0,0,0,102.37,26Z"/><path class="cls-3" d="M105.5,27.31a.33.33,0,0,0,.23-.07.36.36,0,0,0,.07-.19V24.87c0-.06,0-.11,0-.17a.61.61,0,0,1,0-.14h-.32v-.19h1a2.12,2.12,0,0,1,.72.1.93.93,0,0,1,.44.28.77.77,0,0,1,.17.47.9.9,0,0,1,0,.36.83.83,0,0,1-.22.35,1.23,1.23,0,0,1-.45.27,2.2,2.2,0,0,1-.74.1h-.16v.64a1.27,1.27,0,0,1,0,.2.57.57,0,0,1,0,.14h.41v.2H105.5Zm.69-1.19h.28a1,1,0,0,0,.46-.1.75.75,0,0,0,.33-.28.81.81,0,0,0,.12-.44,1,1,0,0,0-.06-.36.71.71,0,0,0-.19-.23.87.87,0,0,0-.29-.14,2,2,0,0,0-.37,0,.25.25,0,0,0-.21.07.3.3,0,0,0-.07.18v1.33Z"/><path class="cls-3" d="M109.51,27.33a.24.24,0,0,0,.19-.07.29.29,0,0,0,.06-.19,2.35,2.35,0,0,0,0-.28v-.62a1,1,0,0,0-.12-.56.41.41,0,0,0-.38-.19.76.76,0,0,0-.32.08.69.69,0,0,0-.25.19V27a.81.81,0,0,1,0,.16.71.71,0,0,1,0,.14H109v.18h-.89v-.13a.26.26,0,0,0,.19-.07.47.47,0,0,0,.06-.19,2.35,2.35,0,0,0,0-.28V24.57s0-.09,0-.15H108v-.18l.3,0a.58.58,0,0,0,.17,0l.08-.05h.13v1.34a.86.86,0,0,1,.22-.15,1.09,1.09,0,0,1,.25-.1.73.73,0,0,1,.25,0,.62.62,0,0,1,.55.24,1.32,1.32,0,0,1,.18.74v1a.78.78,0,0,1,0,.14h.28v.18h-.9Z"/><path class="cls-3" d="M112.07,27.46a.66.66,0,0,1,0-.13s0-.08,0-.12a1.12,1.12,0,0,1-.32.23.81.81,0,0,1-.37.09.73.73,0,0,1-.5-.15.52.52,0,0,1-.16-.37.48.48,0,0,1,.13-.35,1,1,0,0,1,.32-.25,2.06,2.06,0,0,1,.44-.14,2.35,2.35,0,0,1,.45,0V26a2.64,2.64,0,0,0,0-.29.46.46,0,0,0-.12-.23.42.42,0,0,0-.28-.09.63.63,0,0,0-.26,0,.35.35,0,0,0-.2.18.14.14,0,0,1,0,.08.28.28,0,0,1,0,.09.24.24,0,0,1,0,.12.16.16,0,0,1-.16.06.17.17,0,0,1-.14-.06.25.25,0,0,1-.05-.15.37.37,0,0,1,.12-.27.71.71,0,0,1,.31-.19,1.23,1.23,0,0,1,.44-.07.71.71,0,0,1,.55.19.92.92,0,0,1,.17.62v1a.61.61,0,0,1,0,.14.92.92,0,0,1,0,.16h.31v.19Zm0-1.08a1.76,1.76,0,0,0-.31,0,1,1,0,0,0-.3.1.58.58,0,0,0-.23.17.38.38,0,0,0-.08.26.34.34,0,0,0,.11.25.36.36,0,0,0,.23.08.66.66,0,0,0,.32-.07A1.15,1.15,0,0,0,112,27v-.64Z"/><path class="cls-3" d="M113,27.33a.22.22,0,0,0,.18-.07.36.36,0,0,0,.07-.19c0-.08,0-.17,0-.28V25.65a.76.76,0,0,1,0-.15H113v-.18h.14a.79.79,0,0,0,.26,0l.12-.09h.13c0,.05,0,.11,0,.18s0,.15,0,.26a.84.84,0,0,1,.18-.21.93.93,0,0,1,.26-.18.6.6,0,0,1,.3-.07.37.37,0,0,1,.21.06.25.25,0,0,1,.1.22.16.16,0,0,1,0,.08.15.15,0,0,1-.07.09.21.21,0,0,1-.12,0,.23.23,0,0,1-.16-.08.21.21,0,0,1,0-.17.49.49,0,0,0-.23.06.87.87,0,0,0-.22.17,1.8,1.8,0,0,0-.18.25v1.24s0,.09,0,.14h.28v.18H113Z"/><path class="cls-3" d="M114.91,27.46v-.13a.26.26,0,0,0,.19-.07.36.36,0,0,0,.06-.19,2.35,2.35,0,0,0,0-.28V25.65a.77.77,0,0,1,0-.15h-.31v-.19h.29l.15-.05a.2.2,0,0,0,.07-.06h.13a.37.37,0,0,1,0,.11s0,.08,0,.13a1.17,1.17,0,0,1,.3-.19.87.87,0,0,1,.35-.07.72.72,0,0,1,.37.08.58.58,0,0,1,.23.21,1.63,1.63,0,0,1,.34-.21,1.09,1.09,0,0,1,.39-.08.68.68,0,0,1,.56.23,1.16,1.16,0,0,1,.17.75v1a.78.78,0,0,1,0,.14h.28v.18h-.9v-.13a.24.24,0,0,0,.19-.07.29.29,0,0,0,.06-.19,2.35,2.35,0,0,0,0-.28v-.62a1,1,0,0,0-.12-.56.41.41,0,0,0-.38-.19.66.66,0,0,0-.27.06,1,1,0,0,0-.24.16s0,.1,0,.15a.91.91,0,0,1,0,.17v.51c0,.18,0,.35,0,.52v.16a.71.71,0,0,1,0,.14h.27v.18h-.89v-.13a.22.22,0,0,0,.18-.07.36.36,0,0,0,.07-.19c0-.08,0-.17,0-.28v-.62a1.11,1.11,0,0,0-.11-.57.4.4,0,0,0-.37-.19.66.66,0,0,0-.27.06.91.91,0,0,0-.23.15.49.49,0,0,0,0,.12v1.41s0,.09,0,.14h.28v.18Z"/><path class="cls-3" d="M120.18,27.46c0-.05,0-.1,0-.13a.49.49,0,0,0,0-.12,1.12,1.12,0,0,1-.32.23.81.81,0,0,1-.37.09.73.73,0,0,1-.5-.15.49.49,0,0,1-.16-.37.48.48,0,0,1,.13-.35,1,1,0,0,1,.32-.25,1.89,1.89,0,0,1,.44-.14,2.35,2.35,0,0,1,.45,0V26a2.64,2.64,0,0,0,0-.29.46.46,0,0,0-.12-.23.42.42,0,0,0-.28-.09.6.6,0,0,0-.26,0,.35.35,0,0,0-.2.18.14.14,0,0,1,0,.08.28.28,0,0,1,0,.09.41.41,0,0,1,0,.12.17.17,0,0,1-.16.06.17.17,0,0,1-.14-.06.25.25,0,0,1,0-.15.4.4,0,0,1,.11-.27.86.86,0,0,1,.31-.19,1.33,1.33,0,0,1,.45-.07.71.71,0,0,1,.55.19.92.92,0,0,1,.17.62v1c0,.05,0,.1,0,.14s0,.1,0,.16h.31v.19Zm0-1.08a1.76,1.76,0,0,0-.31,0,1.12,1.12,0,0,0-.31.1.62.62,0,0,0-.22.17.34.34,0,0,0-.08.26.31.31,0,0,0,.11.25.36.36,0,0,0,.23.08.66.66,0,0,0,.32-.07,1.88,1.88,0,0,0,.26-.19v-.64Z"/><path class="cls-3" d="M122.19,27.53a1.27,1.27,0,0,1-.55-.13,1,1,0,0,1-.39-.39,1.17,1.17,0,0,1-.15-.61,1.42,1.42,0,0,1,.08-.45,1.36,1.36,0,0,1,.24-.38,1.09,1.09,0,0,1,.36-.28,1,1,0,0,1,.47-.1,1.14,1.14,0,0,1,.43.07.75.75,0,0,1,.28.2.39.39,0,0,1,.1.27.22.22,0,0,1,0,.16.17.17,0,0,1-.15.07.15.15,0,0,1-.16-.07.24.24,0,0,1,0-.12.44.44,0,0,1,0-.1.14.14,0,0,1,0-.08.28.28,0,0,0-.12-.16.6.6,0,0,0-.19-.06l-.15,0a.65.65,0,0,0-.51.24,1.08,1.08,0,0,0-.2.7,1.38,1.38,0,0,0,.09.52,1,1,0,0,0,.27.36.64.64,0,0,0,.4.13.89.89,0,0,0,.69-.38l.11.09a1.12,1.12,0,0,1-.27.3,1.3,1.3,0,0,1-.33.17A1.32,1.32,0,0,1,122.19,27.53Z"/><path class="cls-3" d="M124.5,27.53a1.15,1.15,0,0,1-.55-.14,1,1,0,0,1-.38-.41,1.21,1.21,0,0,1-.14-.62,1.15,1.15,0,0,1,.14-.57,1.1,1.1,0,0,1,.39-.44,1,1,0,0,1,.58-.16.93.93,0,0,1,.34.06.88.88,0,0,1,.29.18.91.91,0,0,1,.19.3,1.14,1.14,0,0,1,.07.43l-1.55,0a2.42,2.42,0,0,0,.07.58.84.84,0,0,0,.24.4.64.64,0,0,0,.42.13,1,1,0,0,0,.28,0,1.3,1.3,0,0,0,.26-.14.7.7,0,0,0,.2-.18l.11.09a1,1,0,0,1-.29.29,1,1,0,0,1-.34.16A1.39,1.39,0,0,1,124.5,27.53ZM123.89,26H125a1,1,0,0,0,0-.3.58.58,0,0,0-.15-.25.41.41,0,0,0-.28-.09.6.6,0,0,0-.42.15A.81.81,0,0,0,123.89,26Z"/><path class="cls-3" d="M126.75,27.53a.82.82,0,0,1-.4-.09.53.53,0,0,1-.24-.3,1.5,1.5,0,0,1-.08-.57v-.92a.77.77,0,0,1,0-.15h-.31v-.18h.14a.87.87,0,0,0,.27,0,.56.56,0,0,0,.14-.09h.13v1.35a1.17,1.17,0,0,0,.1.56.36.36,0,0,0,.37.18.55.55,0,0,0,.32-.1.76.76,0,0,0,.24-.23V25.84a1.09,1.09,0,0,1,0-.19.77.77,0,0,1,0-.15h-.32v-.18h.14a.91.91,0,0,0,.27,0,.48.48,0,0,0,.13-.09h.13v1.67a1.72,1.72,0,0,1,0,.2,1.34,1.34,0,0,1,0,.21h.32v.19h-.63a.78.78,0,0,1,0-.14.62.62,0,0,1,0-.13,1.17,1.17,0,0,1-.33.24A.81.81,0,0,1,126.75,27.53Z"/><path class="cls-3" d="M129.27,27.53l-.2,0a.56.56,0,0,1-.2-.11.55.55,0,0,1-.14-.25,1.2,1.2,0,0,1,0-.42V25.44h-.34v-.19a.4.4,0,0,0,.23-.09.74.74,0,0,0,.21-.22.71.71,0,0,0,.13-.31h.15v.62h.74v.17h-.74v1.22a1.13,1.13,0,0,0,0,.34.41.41,0,0,0,.1.21.32.32,0,0,0,.2.07.48.48,0,0,0,.23-.07.73.73,0,0,0,.19-.2l.12.1a1.66,1.66,0,0,1-.19.23l-.18.13-.17.05Z"/><path class="cls-3" d="M130.15,27.33a.26.26,0,0,0,.19-.07.36.36,0,0,0,.06-.19,2.35,2.35,0,0,0,0-.28V25.65s0-.09,0-.15h-.32v-.19h.3a.76.76,0,0,0,.16-.05.2.2,0,0,0,.09-.06h.13v1.94s0,.09,0,.14h.28v.18h-.9Zm.42-2.55a.23.23,0,0,1-.16-.08.24.24,0,0,1-.07-.18.26.26,0,0,1,.07-.19.24.24,0,0,1,.34,0,.31.31,0,0,1,.06.19.24.24,0,0,1-.07.18A.23.23,0,0,1,130.57,24.78Z"/><path class="cls-3" d="M132.46,27.53a1.2,1.2,0,0,1-.54-.13,1,1,0,0,1-.4-.39,1.17,1.17,0,0,1-.15-.61,1.2,1.2,0,0,1,.09-.45,1.14,1.14,0,0,1,.23-.38,1,1,0,0,1,.37-.28,1,1,0,0,1,.46-.1,1.11,1.11,0,0,1,.43.07.67.67,0,0,1,.28.2.4.4,0,0,1,.11.27.23.23,0,0,1-.06.16.16.16,0,0,1-.15.07.16.16,0,0,1-.16-.07.21.21,0,0,1,0-.12.38.38,0,0,1,0-.1.22.22,0,0,1,.05-.08.28.28,0,0,0-.12-.16.64.64,0,0,0-.18-.06l-.16,0a.62.62,0,0,0-.5.24,1,1,0,0,0-.21.7,1.21,1.21,0,0,0,.1.52.88.88,0,0,0,.26.36.64.64,0,0,0,.4.13.77.77,0,0,0,.39-.11.79.79,0,0,0,.3-.27l.11.09a1,1,0,0,1-.27.3,1.3,1.3,0,0,1-.33.17A1.25,1.25,0,0,1,132.46,27.53Z"/><path class="cls-3" d="M135.06,27.46a.83.83,0,0,1,0-.13s0-.08,0-.12a1,1,0,0,1-.32.23.78.78,0,0,1-.37.09.7.7,0,0,1-.49-.15.5.5,0,0,1-.17-.37.52.52,0,0,1,.13-.35,1,1,0,0,1,.33-.25,1.81,1.81,0,0,1,.43-.14,2.45,2.45,0,0,1,.46,0V26a1.36,1.36,0,0,0,0-.29.55.55,0,0,0-.11-.23.45.45,0,0,0-.29-.09.63.63,0,0,0-.26,0,.34.34,0,0,0-.19.18.2.2,0,0,1,0,.08.28.28,0,0,1,0,.09.24.24,0,0,1,0,.12.15.15,0,0,1-.15.06.19.19,0,0,1-.15-.06.24.24,0,0,1,0-.15.36.36,0,0,1,.11-.27.78.78,0,0,1,.31-.19,1.25,1.25,0,0,1,.45-.07.68.68,0,0,1,.54.19.87.87,0,0,1,.17.62v1.13c0,.05,0,.1,0,.16h.31v.19Zm0-1.08a1.87,1.87,0,0,0-.32,0,1,1,0,0,0-.3.1.66.66,0,0,0-.23.17.45.45,0,0,0-.08.26.34.34,0,0,0,.11.25.38.38,0,0,0,.24.08.62.62,0,0,0,.31-.07A1.48,1.48,0,0,0,135,27a.37.37,0,0,1,0-.11v-.26A2.26,2.26,0,0,0,135,26.38Z"/><path class="cls-3" d="M135.94,27.33a.23.23,0,0,0,.19-.07.36.36,0,0,0,.07-.19V24.71a.66.66,0,0,1,0-.14.86.86,0,0,1,0-.15h-.32v-.18l.31,0a.5.5,0,0,0,.16,0,.26.26,0,0,0,.09-.05h.12V27a.81.81,0,0,1,0,.16s0,.09,0,.14h.27v.18h-.9Z"/></g></g></svg>