<svg xmlns="http://www.w3.org/2000/svg" viewBox="0 0 402.65 110.37"><defs><style>.cls-1{fill:#40296e;}.cls-2{fill:#61c4c2;}.cls-3{fill:#808285;}</style></defs><g id="Layer_2" data-name="Layer 2"><g id="Layer_1-2" data-name="Layer 1"><path class="cls-1" d="M183.87,49.21a9.34,9.34,0,0,0-7.46,3.47q-2.94,3.47-2.93,10.17v2.08h21.06V49.21Zm20.58-9.86v38H140.3V64.93h23.26V63.26q0-11.15,5.6-17.52T184,39.35Z"/><path class="cls-1" d="M64,49.21a9.22,9.22,0,0,0-7.47,3.59q-2.92,3.59-2.93,10.54v1.59H74.67V49.21Zm20.57-9.42V77.32H20.43V64.93H43.7V63.69q0-11.13,5.59-17.51T64.1,39.79Z"/><path class="cls-1" d="M372.63,77.71H325.06Q314,77.71,307.65,72t-6.34-14.94V9.1h12.82V54.28a11.06,11.06,0,0,0,2.75,7.7q2.76,3,8.18,3h34.7V45.46h12.87Z"/><path class="cls-1" d="M141,65A9.47,9.47,0,0,1,135,62.17a11,11,0,0,1-2.75-7.69V8.75H119.46v48q0,9.27,6.35,14.94c3.78,3.39,8.84,5.25,15.14,5.61Z"/><path class="cls-1" d="M233,54.22a11,11,0,0,0,2.76,7.69c1.83,2,4.56,3,8.17,3h34.7V45.46H291.5V77.71H243.93q-11.06,0-17.4-5.68t-6.35-14.94V45.46H233"/><path class="cls-1" d="M87.49,83.27a10.87,10.87,0,0,0,7.64-2.77c2-1.85,3-7,3-10.64V45.46h11.62v24.4q0,11.15-5.63,17.52T89.29,93.77H80.74V83.27"/><path class="cls-2" d="M370.81,24.36a3.78,3.78,0,0,1-1.25-3.08,4.42,4.42,0,0,1,1.23-3.36,5.17,5.17,0,0,1,3.71-1.18H380V25.4h-5.55a5.57,5.57,0,0,1-3.63-1m15.45-6.28h5.55a5.55,5.55,0,0,1,3.63,1,3.8,3.8,0,0,1,1.25,3.08,4.42,4.42,0,0,1-1.23,3.36,5.17,5.17,0,0,1-3.71,1.18h-5.49Zm0,12.82h4a6,6,0,0,1,3.68,1,3.4,3.4,0,0,1,1.29,2.89,3.6,3.6,0,0,1-1.3,3.07,6.34,6.34,0,0,1-3.88,1h-3.79ZM380,12.58h-4a6,6,0,0,1-3.68-1A3.43,3.43,0,0,1,371,8.7a3.6,3.6,0,0,1,1.3-3.07,6.34,6.34,0,0,1,3.88-1H380ZM365,16.8a7.37,7.37,0,0,0-1.42,4.48,7.79,7.79,0,0,0,2.83,6.52q2.82,2.22,8,2.22h5.84V43.48h9.77q5.26,0,8.22-2.07a7,7,0,0,0,2.94-6.15,6.62,6.62,0,0,0-1.06-3.7A6.53,6.53,0,0,0,397,29.11a6.43,6.43,0,0,0,4.2-2.43,7.36,7.36,0,0,0,1.41-4.48,7.77,7.77,0,0,0-2.83-6.52q-2.82-2.22-8-2.22H386V0H376.2Q370.94,0,368,2.07A7,7,0,0,0,365,8.23a6.61,6.61,0,0,0,1.06,3.69,6.51,6.51,0,0,0,3.12,2.45A6.46,6.46,0,0,0,365,16.8"/><path class="cls-3" d="M4.32,102.62a3.39,3.39,0,0,1,.25-1.35,2.42,2.42,0,0,1,.71-.92,3,3,0,0,1,1.1-.52,5.43,5.43,0,0,1,1.38-.17h.4l.45,0,.42.06.34.08a.29.29,0,0,1,.17.08.43.43,0,0,1,0,.17v3.76c0,.36.09.59.26.69a1.19,1.19,0,0,0,.67.16h.31v1.15h-.45a2.5,2.5,0,0,1-1-.18,1.15,1.15,0,0,1-.61-.6,1.26,1.26,0,0,1-.7.42,3.77,3.77,0,0,1-1,.13H6.89A2.54,2.54,0,0,1,5,105a2.71,2.71,0,0,1-.67-2Zm1.12.2a2,2,0,0,0,.36,1.25,1.47,1.47,0,0,0,1.22.45h.25a2.83,2.83,0,0,0,.41,0,1.39,1.39,0,0,0,.39-.1.71.71,0,0,0,.28-.23.56.56,0,0,0,.11-.35v-3l-.47,0H7.62a4.06,4.06,0,0,0-.88.08,1.61,1.61,0,0,0-.68.29,1.35,1.35,0,0,0-.46.56,2.08,2.08,0,0,0-.16.89Zm0-5.64A.27.27,0,0,1,5.55,97a.33.33,0,0,1,.22-.08h.52a.33.33,0,0,1,.22.08.26.26,0,0,1,.08.21v.73a.27.27,0,0,1-.09.2.32.32,0,0,1-.21.08H5.77a.33.33,0,0,1-.22-.08.27.27,0,0,1-.09-.2Zm2.17,0a.25.25,0,0,1,.1-.21A.37.37,0,0,1,8,96.89h.52a.32.32,0,0,1,.21.08.28.28,0,0,1,.1.21v.73a.28.28,0,0,1-.1.2.32.32,0,0,1-.21.08H8a.37.37,0,0,1-.22-.08.25.25,0,0,1-.1-.2Z"/><path class="cls-3" d="M10.73,105.86a1,1,0,0,1-.32,0c-.09,0-.13-.08-.13-.14v-.79s0-.1.13-.13a1,1,0,0,1,.32,0h2.94v1.15Z"/><path class="cls-3" d="M13.59,105.86a1,1,0,0,1-.32,0c-.09,0-.13-.08-.13-.14v-.79s0-.1.13-.13a1,1,0,0,1,.32,0H27v1.15Z"/><path class="cls-3" d="M24.82,105.86a1,1,0,0,1-.32,0c-.09,0-.13-.08-.13-.14v-.79s0-.1.13-.13a1,1,0,0,1,.32,0H34v1.15Z"/><path class="cls-3" d="M27.68,105.86a1,1,0,0,1-.32,0c-.09,0-.13-.08-.13-.14v-.79s0-.1.13-.13a1,1,0,0,1,.32,0H36.9v1.15Z"/><path class="cls-3" d="M36.37,104.88s0-.1.13-.13a1,1,0,0,1,.32,0h.93a1.15,1.15,0,0,0,.49-.07c.07,0,.11-.18.11-.42v-1.71c0-.28,0-.56,0-.86s0-.61,0-1a.28.28,0,0,1,.06-.18.21.21,0,0,1,.17-.07h.64a.23.23,0,0,1,.18.07.24.24,0,0,1,.07.18c0,.3,0,.56,0,.76s0,.4,0,.58v1.26c0,.43,0,.82,0,1.19a8.49,8.49,0,0,1-.05.86.72.72,0,0,1-.08.22.42.42,0,0,1-.22.16,1.05,1.05,0,0,1-.3.06l-.42,0a4,4,0,0,1-.49,0H36.82a1,1,0,0,1-.32,0c-.09,0-.13-.08-.13-.14Zm.05,2.52a.29.29,0,0,1,.09-.22.31.31,0,0,1,.22-.08h.51a.31.31,0,0,1,.22.08.29.29,0,0,1,.09.22v.72a.25.25,0,0,1-.09.19.33.33,0,0,1-.22.09h-.51a.28.28,0,0,1-.22-.09.25.25,0,0,1-.09-.19Zm2.17,0a.27.27,0,0,1,.1-.22.35.35,0,0,1,.22-.08h.52a.34.34,0,0,1,.21.08.29.29,0,0,1,.09.22v.72a.25.25,0,0,1-.09.19.3.3,0,0,1-.21.09h-.52a.31.31,0,0,1-.22-.09.23.23,0,0,1-.1-.19Z"/><path class="cls-3" d="M41.87,108.11c0-.13.07-.19.21-.19h1.13a6.85,6.85,0,0,0,1-.06,2,2,0,0,0,.73-.23,1.13,1.13,0,0,0,.46-.46,1.65,1.65,0,0,0,.17-.79v-.79a.57.57,0,0,1-.27.13l-.4.08a3.27,3.27,0,0,1-.44,0h-.37a2.65,2.65,0,0,1-1.93-.7,2.82,2.82,0,0,1-.71-2.1v-.33a3,3,0,0,1,.82-2.23,3.2,3.2,0,0,1,2.34-.81c.36,0,.7,0,1,0a5.39,5.39,0,0,1,.85.16.38.38,0,0,1,.17.09.21.21,0,0,1,0,.15v6.06a3.37,3.37,0,0,1-.24,1.37,2.1,2.1,0,0,1-.67.85,2.65,2.65,0,0,1-1,.44,6.4,6.4,0,0,1-1.29.13l-.34,0h-.4l-.39,0-.24,0a.39.39,0,0,1-.17-.07.21.21,0,0,1,0-.14Zm3.67-7.31-.52,0h-.6a1.94,1.94,0,0,0-1.39.49,1.88,1.88,0,0,0-.51,1.42v.27a2,2,0,0,0,.4,1.38,1.83,1.83,0,0,0,1.36.42,5.75,5.75,0,0,0,.89-.06c.25,0,.37-.17.37-.38Z"/><path class="cls-3" d="M48.33,105a.25.25,0,0,1,.08-.18.33.33,0,0,1,.19-.06h3.63v-1.65a2.49,2.49,0,0,0-.6-1.75,2.42,2.42,0,0,0-1.82-.58h-.42a3.13,3.13,0,0,0-.46,0c-.18,0-.27,0-.27-.19V100a.26.26,0,0,1,.06-.18.34.34,0,0,1,.21-.08c.23,0,.45-.06.66-.07H50a4.24,4.24,0,0,1,1.53.24,2.57,2.57,0,0,1,1,.68,2.8,2.8,0,0,1,.56,1,5.37,5.37,0,0,1,.2,1.32s0,.13,0,.27,0,.3,0,.47,0,.33,0,.48v.55c0,.09,0,.19,0,.29v.3c0,.1,0,.18,0,.24s-.1.27-.3.27H48.6a.33.33,0,0,1-.19-.06.21.21,0,0,1-.08-.17Z"/><path class="cls-3" d="M54.93,105c0-.16.08-.24.25-.24h4.47l.29,0a1.55,1.55,0,0,0,.31-.06.63.63,0,0,0,.24-.14.37.37,0,0,0,.1-.28V96.06a.24.24,0,0,1,.07-.18.21.21,0,0,1,.17-.07h.67a.22.22,0,0,1,.17.07.29.29,0,0,1,.07.18v8.32a.27.27,0,0,0,.16.17l.29.1.32,0,.26,0H63v1.15h-.16a4.39,4.39,0,0,1-.85-.09,1.76,1.76,0,0,1-.77-.35,1.88,1.88,0,0,1-.8.36,5.37,5.37,0,0,1-.83.08H55.18c-.17,0-.25-.08-.25-.23ZM56.38,96c-.16,0-.24-.06-.24-.16v-.23c0-.09.08-.14.24-.14h.22a.88.88,0,0,1-.17-.35,1.48,1.48,0,0,1,0-.41,1,1,0,0,1,.32-.82,1.43,1.43,0,0,1,.93-.26h.24l.26,0c.1,0,.15.09.15.16V94c0,.1-.06.15-.17.15h-.42c-.47,0-.7.2-.7.6a1.06,1.06,0,0,0,.09.47.47.47,0,0,0,.2.23h.89c.15,0,.23,0,.23.16v.22c0,.07,0,.11-.06.13a.4.4,0,0,1-.17,0Zm.33,1.27a.26.26,0,0,1,.07-.19A.21.21,0,0,1,57,97h.65a.21.21,0,0,1,.17.08.31.31,0,0,1,.06.19v6a.29.29,0,0,1-.07.18.21.21,0,0,1-.17.07H57a.21.21,0,0,1-.17-.07.24.24,0,0,1-.07-.18Z"/><path class="cls-3" d="M62.44,104.88s0-.09.13-.13a1,1,0,0,1,.32,0h5.25a1.15,1.15,0,0,0,.49-.07c.07,0,.1-.18.1-.42V96.06a.24.24,0,0,1,.25-.25h.65a.24.24,0,0,1,.18.07.28.28,0,0,1,.06.18v8.5l0,.41a3.7,3.7,0,0,1,0,.37.93.93,0,0,1-.08.22.39.39,0,0,1-.22.16,1,1,0,0,1-.3.06l-.44,0a4.07,4.07,0,0,1-.5,0H62.89a1,1,0,0,1-.32,0c-.09,0-.13-.08-.13-.14Z"/><path class="cls-3" d="M75.66,104.08c0-.08,0-.19,0-.32s0-.28,0-.44,0-.31,0-.47,0-.3.07-.43.12-.26.27-.26h.56q.22,0,.21.27c0,.21,0,.43-.07.66a4.71,4.71,0,0,0,0,.59,8.49,8.49,0,0,0,.09,1.26,2.44,2.44,0,0,0,.38,1,2.09,2.09,0,0,0,.89.72,4,4,0,0,0,1.62.27l.79,0a4.41,4.41,0,0,0,.71-.09c0-.25,0-.47,0-.65s0-.35,0-.51v-2.43a2.48,2.48,0,0,1,.8-2.06,3.48,3.48,0,0,1,2.23-.64,8.77,8.77,0,0,1,.88,0,6.13,6.13,0,0,1,.82.13.48.48,0,0,1,.16.08.23.23,0,0,1,0,.17v3.22a.48.48,0,0,0,.14.41,1.13,1.13,0,0,0,.55.09h.62v1.15h-.9a1.82,1.82,0,0,1-1.18-.3,1.42,1.42,0,0,1-.35-1.1v-2.77l-.45,0h-.44a3,3,0,0,0-.76.08,1.26,1.26,0,0,0-.57.27,1.19,1.19,0,0,0-.36.53,2.25,2.25,0,0,0-.13.84v2.85c0,.17,0,.33,0,.51v.5c0,.16,0,.3,0,.43s-.09.24-.28.28a8.12,8.12,0,0,1-1.1.13c-.41,0-.82,0-1.25,0a5.42,5.42,0,0,1-2-.29A3,3,0,0,1,76.5,107a2.86,2.86,0,0,1-.65-1.26,6.56,6.56,0,0,1-.19-1.65m1.76,5.35a.29.29,0,0,1,.08-.21.32.32,0,0,1,.22-.07h.49a.36.36,0,0,1,.22.07.26.26,0,0,1,.09.21v.67a.24.24,0,0,1-.1.19.37.37,0,0,1-.21.08h-.49a.33.33,0,0,1-.22-.08.29.29,0,0,1-.08-.19Zm2.15,0a.26.26,0,0,1,.09-.21.32.32,0,0,1,.2-.07h.52a.31.31,0,0,1,.2.07.26.26,0,0,1,.09.21v.67a.26.26,0,0,1-.09.19.32.32,0,0,1-.2.08h-.52a.34.34,0,0,1-.2-.08.26.26,0,0,1-.09-.19Z"/><path class="cls-3" d="M87.42,105.86a.93.93,0,0,1-.32,0c-.09,0-.14-.08-.14-.14v-.79s.05-.1.14-.13a1,1,0,0,1,.32,0h2.93v1.15Z"/><path class="cls-3" d="M90.27,105.86a1,1,0,0,1-.32,0c-.08,0-.13-.08-.13-.14v-.79s.05-.1.13-.13a1,1,0,0,1,.32,0h2.94v1.15Z"/><path class="cls-3" d="M93.13,105.86a1,1,0,0,1-.32,0c-.09,0-.13-.08-.13-.14v-.79s0-.1.13-.13a1,1,0,0,1,.32,0h2.94v1.15Z"/><path class="cls-3" d="M96,105.86a1,1,0,0,1-.32,0c-.09,0-.13-.08-.13-.14v-.79s0-.1.13-.13a1,1,0,0,1,.32,0h19.69v1.15Z"/><path class="cls-3" d="M115.15,104.88s0-.1.13-.13a1,1,0,0,1,.32,0h6.17l-.48-1.15-.31-.71a3.41,3.41,0,0,0-1.16-1.52,3.36,3.36,0,0,0-2-.51h-.17l-.25,0-.28,0-.25,0c-.19,0-.29,0-.29-.19v-.54a.26.26,0,0,1,0-.17.37.37,0,0,1,.2-.09,5.86,5.86,0,0,1,.66-.09l.6,0a5.51,5.51,0,0,1,1.25.13,3.18,3.18,0,0,1,1.11.47,3.79,3.79,0,0,1,1,.93,7.05,7.05,0,0,1,.83,1.54l.13.34.56,1.44c0,.06,0,.12,0,.18a1.66,1.66,0,0,1,0,.24v.49a.36.36,0,0,1-.08.23.43.43,0,0,1-.31.09h-7a.81.81,0,0,1-.33-.06c-.08,0-.12-.09-.12-.13Zm3.21,2.52a.27.27,0,0,1,.1-.22.32.32,0,0,1,.21-.08h.57a.32.32,0,0,1,.21.08.27.27,0,0,1,.1.22v.72a.23.23,0,0,1-.1.19.29.29,0,0,1-.21.09h-.57a.29.29,0,0,1-.21-.09.23.23,0,0,1-.1-.19Z"/><path class="cls-3" d="M123.11,108.13c0-.12.08-.18.23-.18h.28a4.43,4.43,0,0,0,.71,0,.9.9,0,0,0,.46-.17.69.69,0,0,0,.23-.39,2.73,2.73,0,0,0,.07-.71V100.7a.24.24,0,0,1,.07-.18.21.21,0,0,1,.17-.07H126a.2.2,0,0,1,.16.07.24.24,0,0,1,.07.18v4h1.22v1.15h-1.24v.85a4.85,4.85,0,0,1,0,.79,1.73,1.73,0,0,1-.2.63,1.46,1.46,0,0,1-.73.66A3.57,3.57,0,0,1,124,109l-.28,0-.36,0a.34.34,0,0,1-.17-.07.2.2,0,0,1,0-.14Z"/><path class="cls-3" d="M126.9,104.88s0-.1.13-.13a1,1,0,0,1,.32,0h.6l.29,0a1.55,1.55,0,0,0,.31-.06.57.57,0,0,0,.24-.14.37.37,0,0,0,.1-.28V100.7a.25.25,0,0,1,.08-.18.29.29,0,0,1,.18-.07h.61a.29.29,0,0,1,.18.07.24.24,0,0,1,.07.18v3.69a.3.3,0,0,0,.17.16,1.51,1.51,0,0,0,.28.1l.31,0,.28,0h.18v1.15h-.15a4.79,4.79,0,0,1-.89-.09,1.75,1.75,0,0,1-.78-.35,1.84,1.84,0,0,1-.79.35,4.28,4.28,0,0,1-.83.09h-.44a1,1,0,0,1-.32,0c-.09,0-.13-.08-.13-.14Zm.86-7.17a.29.29,0,0,1,.09-.22.33.33,0,0,1,.22-.08h.52a.33.33,0,0,1,.22.08.29.29,0,0,1,.08.22v.72a.25.25,0,0,1-.09.2.32.32,0,0,1-.21.08h-.52a.33.33,0,0,1-.22-.08.25.25,0,0,1-.09-.2Zm2.17,0a.27.27,0,0,1,.1-.22.37.37,0,0,1,.22-.08h.52a.32.32,0,0,1,.21.08.3.3,0,0,1,.1.22v.72a.26.26,0,0,1-.1.2.32.32,0,0,1-.21.08h-.52a.37.37,0,0,1-.22-.08.23.23,0,0,1-.1-.2Z"/><path class="cls-3" d="M130.7,104.88s.05-.1.14-.13a1,1,0,0,1,.32,0h.59l.3,0a1.59,1.59,0,0,0,.3-.06.68.68,0,0,0,.25-.14.41.41,0,0,0,.1-.28V100.7a.24.24,0,0,1,.25-.25h.61a.24.24,0,0,1,.25.25v3.69a.33.33,0,0,0,.17.16,1.83,1.83,0,0,0,.28.1l.31,0,.28,0H135v1.15h-.16a4.79,4.79,0,0,1-.89-.09,1.58,1.58,0,0,1-.77-.36,1.83,1.83,0,0,1-.8.36,4.28,4.28,0,0,1-.83.09h-.43a.93.93,0,0,1-.32,0c-.09,0-.14-.08-.14-.14Zm1.89,2.52a.29.29,0,0,1,.09-.22.37.37,0,0,1,.22-.08h.57a.32.32,0,0,1,.21.08.29.29,0,0,1,.09.22v.72a.25.25,0,0,1-.09.19.29.29,0,0,1-.21.09h-.57a.33.33,0,0,1-.22-.09.25.25,0,0,1-.09-.19Z"/><path class="cls-3" d="M134.51,104.88s0-.09.13-.13a1,1,0,0,1,.32,0H136a1.15,1.15,0,0,0,.49-.07c.06,0,.1-.18.1-.42V96.06a.24.24,0,0,1,.25-.25h.65a.21.21,0,0,1,.17.07.24.24,0,0,1,.07.18v8.08c0,.14,0,.28,0,.42s0,.28,0,.41a3.5,3.5,0,0,1,0,.37.48.48,0,0,1-.08.22.33.33,0,0,1-.21.16,1,1,0,0,1-.31.06l-.43,0a4.07,4.07,0,0,1-.5,0H135a1,1,0,0,1-.32,0c-.09,0-.13-.08-.13-.14Z"/><path class="cls-3" d="M140,96.06a.28.28,0,0,1,.07-.19.25.25,0,0,1,.18-.08h.65a.25.25,0,0,1,.18.08.33.33,0,0,1,.06.19v9.53a.33.33,0,0,1-.06.19.25.25,0,0,1-.18.08h-.65a.25.25,0,0,1-.18-.08.28.28,0,0,1-.07-.19Z"/><path class="cls-3" d="M156.4,104.71l.28,0a1.31,1.31,0,0,0,.31-.06.72.72,0,0,0,.24-.14.37.37,0,0,0,.1-.28v-3.5a.25.25,0,0,1,.07-.19.24.24,0,0,1,.18-.07h.63a.21.21,0,0,1,.17.07.29.29,0,0,1,.07.19v3.68a.28.28,0,0,0,.16.16l.28.1.31,0,.27,0h.21v1.15h-.14l-.41,0a2.32,2.32,0,0,1-.44-.06,3.22,3.22,0,0,1-.44-.14,1.09,1.09,0,0,1-.36-.22,1.63,1.63,0,0,1-.87.36,7.66,7.66,0,0,1-1.09.08h-3.35a7.15,7.15,0,0,1-2.09-.25,3,3,0,0,1-1.29-.71,2.48,2.48,0,0,1-.65-1.12,5.72,5.72,0,0,1-.18-1.48c0-.19,0-.38,0-.58a4.68,4.68,0,0,1,.09-.69c0-.17.11-.26.26-.26h.56c.15,0,.22.09.2.27s0,.38,0,.52,0,.29,0,.44a5.35,5.35,0,0,0,.1,1.1,1.75,1.75,0,0,0,.45.86,2.16,2.16,0,0,0,1,.55,5.83,5.83,0,0,0,1.68.2Zm-4.59-6.25a.29.29,0,0,1,.09-.22.33.33,0,0,1,.22-.08h.52a.28.28,0,0,1,.3.3v.72a.25.25,0,0,1-.09.2.32.32,0,0,1-.21.08h-.52a.33.33,0,0,1-.22-.08.25.25,0,0,1-.09-.2Zm2.17,0a.27.27,0,0,1,.1-.22.37.37,0,0,1,.22-.08h.52a.32.32,0,0,1,.21.08.29.29,0,0,1,.09.22v.72a.25.25,0,0,1-.09.2.32.32,0,0,1-.21.08h-.52a.37.37,0,0,1-.22-.08.23.23,0,0,1-.1-.2Z"/><path class="cls-3" d="M159.6,105.86a1,1,0,0,1-.32,0c-.08,0-.13-.08-.13-.14v-.79s0-.1.13-.13a1,1,0,0,1,.32,0h2.94v1.15Z"/><path class="cls-3" d="M162.46,105.86a1,1,0,0,1-.32,0c-.09,0-.13-.08-.13-.14v-.79s0-.1.13-.13a1,1,0,0,1,.32,0h11.31v1.15Z"/><path class="cls-3" d="M173.7,105.86a1,1,0,0,1-.32,0c-.09,0-.14-.08-.14-.14v-.79s0-.1.14-.13a1,1,0,0,1,.32,0h2.93v1.15Z"/><path class="cls-3" d="M176.55,105.86a1,1,0,0,1-.32,0c-.08,0-.13-.08-.13-.14v-.79s.05-.1.13-.13a1,1,0,0,1,.32,0h2.94v1.15Z"/><path class="cls-3" d="M179,104.88s0-.1.13-.13a1,1,0,0,1,.32,0h.6l.29,0a1.55,1.55,0,0,0,.31-.06.57.57,0,0,0,.24-.14.37.37,0,0,0,.1-.28V100.7a.25.25,0,0,1,.08-.18.24.24,0,0,1,.18-.07h.61a.24.24,0,0,1,.25.25v3.69a.3.3,0,0,0,.17.16,1.83,1.83,0,0,0,.28.1l.31,0,.28,0h.18v1.15h-.15a4.79,4.79,0,0,1-.89-.09,1.66,1.66,0,0,1-.78-.36,1.74,1.74,0,0,1-.79.36,4.28,4.28,0,0,1-.83.09h-.44a1,1,0,0,1-.32,0c-.09,0-.13-.08-.13-.14Zm.7,2.52a.29.29,0,0,1,.09-.22.33.33,0,0,1,.22-.08h.52a.33.33,0,0,1,.22.08.29.29,0,0,1,.08.22v.72a.25.25,0,0,1-.09.19.29.29,0,0,1-.21.09H180a.29.29,0,0,1-.22-.09.25.25,0,0,1-.09-.19Zm2.17,0a.3.3,0,0,1,.1-.22.37.37,0,0,1,.22-.08h.52a.32.32,0,0,1,.21.08.3.3,0,0,1,.1.22v.72a.26.26,0,0,1-.1.19.29.29,0,0,1-.21.09h-.52a.33.33,0,0,1-.22-.09.26.26,0,0,1-.1-.19Z"/><path class="cls-3" d="M183.22,105.86a.93.93,0,0,1-.32,0c-.09,0-.14-.08-.14-.14v-.79s.05-.1.14-.13a1,1,0,0,1,.32,0h2.12a1.15,1.15,0,0,0,.49-.07c.08,0,.11-.18.11-.42v-1.71c0-.28,0-.56,0-.86s0-.61,0-1a.28.28,0,0,1,.06-.18.21.21,0,0,1,.17-.07h.64a.25.25,0,0,1,.19.07.28.28,0,0,1,.06.18c0,.3,0,.56,0,.76s0,.4,0,.58v1.26c0,.43,0,.82,0,1.19s0,.65,0,.86a.73.73,0,0,1-.09.22.42.42,0,0,1-.22.16,1,1,0,0,1-.29.06l-.43,0a3.91,3.91,0,0,1-.49,0h-2.27Zm1.64,1.54a.27.27,0,0,1,.1-.22.32.32,0,0,1,.21-.08h.57a.32.32,0,0,1,.21.08.27.27,0,0,1,.1.22v.72a.23.23,0,0,1-.1.19.29.29,0,0,1-.21.09h-.57a.29.29,0,0,1-.21-.09.23.23,0,0,1-.1-.19Z"/><rect class="cls-1" x="339.94" y="83.32" width="10.53" height="10.6"/><rect class="cls-1" x="255.93" y="83.32" width="10.54" height="10.6"/><rect class="cls-1" x="178.84" y="12.86" width="10.54" height="10.61"/><path class="cls-1" d="M25.48,65H23.75q-5.41,0-8.18-3a11,11,0,0,1-2.75-7.69V8.75H0v48Q0,66,6.35,71.68t17.4,5.68h1.73Z"/></g></g></svg>