<svg xmlns="http://www.w3.org/2000/svg" viewBox="0 0 65.18 72.11"><defs><style>.cls-1{fill:#dadbda;}</style></defs><g id="Layer_2" data-name="Layer 2"><g id="Layer_1-2" data-name="Layer 1"><path class="cls-1" d="M53.15,40.4a9.28,9.28,0,0,1-6,1.72H37.83V27.76H47c2.76,0,4.83.65,6.19,1.95a7.32,7.32,0,0,1,2,5.58,6.26,6.26,0,0,1-2.08,5.11m-25.8,4H18.19q-4.14,0-6.19-2A7.32,7.32,0,0,1,10,36.82,6.26,6.26,0,0,1,12,31.71,9.31,9.31,0,0,1,18.09,30h9.26Zm0,20.07H21c-2.88,0-5-.55-6.48-1.64a6,6,0,0,1-2.17-5.1,5.65,5.65,0,0,1,2.15-4.79,10,10,0,0,1,6.16-1.64h6.66ZM37.83,7.69h6.33q4.31,0,6.48,1.64a6,6,0,0,1,2.17,5.1,5.65,5.65,0,0,1-2.16,4.79,10,10,0,0,1-6.15,1.64H37.83Zm25,20.18a10.78,10.78,0,0,0-7-4,10.58,10.58,0,0,0,7-10.19q0-6.76-4.92-10.2T44.16,0H27.85V22.33H18.09Q9.44,22.33,4.72,26T0,36.82a12.13,12.13,0,0,0,2.36,7.42,10.73,10.73,0,0,0,7,4,10.83,10.83,0,0,0-5.2,4.07,10.92,10.92,0,0,0-1.78,6.12q0,6.77,4.93,10.2T21,72.11H37.34V49.78H47.1q8.64,0,13.37-3.67t4.71-10.82a12.12,12.12,0,0,0-2.35-7.42"/></g></g></svg>