<svg xmlns="http://www.w3.org/2000/svg" viewBox="0 0 139.5 28.65"><defs><style>.cls-1{fill:#dadbda;}.cls-2{fill:#61c4c2;}</style></defs><g id="Layer_2" data-name="Layer 2"><g id="Layer_1-2" data-name="Layer 1"><path class="cls-1" d="M15.72,13.07V18h3.2A3.19,3.19,0,0,0,21,17.43a2.17,2.17,0,0,0,.72-1.77A2.54,2.54,0,0,0,21,13.74a3,3,0,0,0-2.14-.67Zm0-2.38H18a3.46,3.46,0,0,0,2.13-.57,2,2,0,0,0,.74-1.65,2.07,2.07,0,0,0-.75-1.76,3.66,3.66,0,0,0-2.24-.56H15.72Zm-3.44,10V3.49H17.9a8.2,8.2,0,0,1,4.74,1.19A4,4,0,0,1,24.33,8.2a3.63,3.63,0,0,1-2.4,3.51,3.71,3.71,0,0,1,2.42,1.4,4.17,4.17,0,0,1,.81,2.55,4.44,4.44,0,0,1-1.63,3.74,7.37,7.37,0,0,1-4.61,1.27Z"/><path class="cls-1" d="M30.94,18.37a3,3,0,0,0,1.61-.45,2.41,2.41,0,0,0,1-1V15.07H31.58a2.31,2.31,0,0,0-1.66.55A1.78,1.78,0,0,0,29.36,17a1.32,1.32,0,0,0,.42,1,1.64,1.64,0,0,0,1.16.39m3.15,2.3a9.07,9.07,0,0,1-.32-.92,6.81,6.81,0,0,1-.2-1,4.63,4.63,0,0,1-1.4,1.55,3.52,3.52,0,0,1-2.08.61,4.32,4.32,0,0,1-3.09-1,3.7,3.7,0,0,1-1.08-2.81,3.38,3.38,0,0,1,1.44-2.91,7.22,7.22,0,0,1,4.22-1h1.93v-1A2,2,0,0,0,33,10.69a1.89,1.89,0,0,0-1.44-.51,1.87,1.87,0,0,0-1.29.41,1.42,1.42,0,0,0-.45,1.11H26.53l0-.07a3.21,3.21,0,0,1,1.41-2.79,6.12,6.12,0,0,1,3.9-1.17,5.72,5.72,0,0,1,3.72,1.15A4.06,4.06,0,0,1,37,12.14v5.27a10.08,10.08,0,0,0,.13,1.69,9.17,9.17,0,0,0,.43,1.57Z"/><path class="cls-1" d="M46.77,14.39a6.7,6.7,0,0,0-.54-3,1.93,1.93,0,0,0-1.87-1.09,2.61,2.61,0,0,0-1.36.33,2.38,2.38,0,0,0-.87,1V17a2.16,2.16,0,0,0,.88.89,2.86,2.86,0,0,0,1.37.31,2,2,0,0,0,1.86-.94,5.4,5.4,0,0,0,.53-2.66Zm3.44.25a7.45,7.45,0,0,1-1.28,4.56,4.3,4.3,0,0,1-3.68,1.71,3.83,3.83,0,0,1-2-.47,4,4,0,0,1-1.41-1.38l-.28,1.61H38.69V2.27h3.44v7a4,4,0,0,1,1.32-1.18,3.8,3.8,0,0,1,1.78-.41,4.22,4.22,0,0,1,3.7,1.83,8.4,8.4,0,0,1,1.28,4.89Z"/><path class="cls-1" d="M60.72,11.78h3.13A2.88,2.88,0,0,0,66,11a2.81,2.81,0,0,0,.74-2A2.89,2.89,0,0,0,66,7a2.83,2.83,0,0,0-2.18-.8H60.72Zm0,2.66v6.23H57.28V3.49h6.57A6.77,6.77,0,0,1,68.5,5a5,5,0,0,1,1.7,4,5,5,0,0,1-1.7,4,6.77,6.77,0,0,1-4.65,1.5Z"/><path class="cls-1" d="M75.29,9.52a4.33,4.33,0,0,1,1.47-1.36,3.86,3.86,0,0,1,1.94-.49A3.93,3.93,0,0,1,81.83,9,6.21,6.21,0,0,1,83,13.09v7.58H79.52v-7.6A3.55,3.55,0,0,0,79,11a1.68,1.68,0,0,0-1.43-.62,3.38,3.38,0,0,0-1.37.26,2.38,2.38,0,0,0-.95.72v9.35H71.84V2.27h3.45Z"/><path class="cls-1" d="M89.45,18.37a2.94,2.94,0,0,0,1.61-.45,2.41,2.41,0,0,0,1-1V15.07H90.09a2.32,2.32,0,0,0-1.66.55A1.78,1.78,0,0,0,87.87,17a1.32,1.32,0,0,0,.42,1,1.64,1.64,0,0,0,1.16.39m3.15,2.3a9.07,9.07,0,0,1-.32-.92,6.81,6.81,0,0,1-.2-1,4.63,4.63,0,0,1-1.4,1.55,3.5,3.5,0,0,1-2.08.61,4.32,4.32,0,0,1-3.09-1,3.7,3.7,0,0,1-1.08-2.81,3.38,3.38,0,0,1,1.44-2.91,7.22,7.22,0,0,1,4.22-1H92v-1a2,2,0,0,0-.48-1.42,1.89,1.89,0,0,0-1.44-.51,1.87,1.87,0,0,0-1.29.41,1.42,1.42,0,0,0-.45,1.11H85l0-.07a3.21,3.21,0,0,1,1.41-2.79,6.12,6.12,0,0,1,3.9-1.17,5.72,5.72,0,0,1,3.72,1.15,4.06,4.06,0,0,1,1.42,3.32v5.27a10.08,10.08,0,0,0,.13,1.69A9.17,9.17,0,0,0,96,20.67Z"/><path class="cls-1" d="M104.28,10.86l-1.26,0a2.23,2.23,0,0,0-1.26.32A2,2,0,0,0,101,12v8.63H97.57V7.9h3.19l.16,1.89a4,4,0,0,1,1.16-1.56,2.61,2.61,0,0,1,1.65-.56,2.29,2.29,0,0,1,.47,0l.45.1Z"/><path class="cls-1" d="M108.79,7.9l.14,1.69a4.27,4.27,0,0,1,1.54-1.42,4.34,4.34,0,0,1,2.14-.5,3.9,3.9,0,0,1,2.1.54A3.36,3.36,0,0,1,116,9.85a4.36,4.36,0,0,1,1.53-1.6,4.13,4.13,0,0,1,2.22-.58,3.62,3.62,0,0,1,3,1.34,6.41,6.41,0,0,1,1.09,4.08v7.58H120.4V13.08a3.52,3.52,0,0,0-.47-2.13,1.67,1.67,0,0,0-1.4-.6,2.28,2.28,0,0,0-2.12,1.22c0,.15,0,.28,0,.39s0,.21,0,.32v8.39H113V13.08a3.65,3.65,0,0,0-.47-2.12,1.68,1.68,0,0,0-1.42-.61,2.64,2.64,0,0,0-1.22.26,2.42,2.42,0,0,0-.87.75v9.31h-3.43V7.9Z"/><path class="cls-1" d="M130.38,18.37a3,3,0,0,0,1.61-.45,2.41,2.41,0,0,0,1-1V15.07H131a2.32,2.32,0,0,0-1.66.55A1.78,1.78,0,0,0,128.8,17a1.32,1.32,0,0,0,.42,1,1.64,1.64,0,0,0,1.16.39m3.15,2.3a9.07,9.07,0,0,1-.32-.92,6.81,6.81,0,0,1-.2-1,4.63,4.63,0,0,1-1.4,1.55,3.52,3.52,0,0,1-2.08.61,4.32,4.32,0,0,1-3.09-1,3.7,3.7,0,0,1-1.08-2.81,3.38,3.38,0,0,1,1.44-2.91,7.22,7.22,0,0,1,4.22-1H133v-1a2,2,0,0,0-.48-1.42,1.89,1.89,0,0,0-1.44-.51,1.87,1.87,0,0,0-1.29.41,1.42,1.42,0,0,0-.45,1.11H126l0-.07a3.21,3.21,0,0,1,1.41-2.79,6.12,6.12,0,0,1,3.9-1.17A5.72,5.72,0,0,1,135,8.82a4.06,4.06,0,0,1,1.42,3.32v5.27a10.08,10.08,0,0,0,.13,1.69,9.17,9.17,0,0,0,.43,1.57Z"/><path class="cls-2" d="M8.52,6.48a1.5,1.5,0,0,1-1,.27H6.07V4.45H7.54a1.43,1.43,0,0,1,1,.31,1.19,1.19,0,0,1,.33.9,1,1,0,0,1-.34.82m-4.13.63H2.92a1.39,1.39,0,0,1-1-.31,1.18,1.18,0,0,1-.32-.9,1,1,0,0,1,.33-.82,1.51,1.51,0,0,1,1-.27H4.39Zm0,3.22h-1a1.77,1.77,0,0,1-1-.26A1,1,0,0,1,2,9.25a.92.92,0,0,1,.35-.77,1.64,1.64,0,0,1,1-.26H4.39Zm1.68-9.1h1a1.68,1.68,0,0,1,1,.27.94.94,0,0,1,.35.81.92.92,0,0,1-.35.77,1.58,1.58,0,0,1-1,.26H6.07Zm4,3.24A1.7,1.7,0,0,0,9,3.82a1.71,1.71,0,0,0,.83-.65,1.76,1.76,0,0,0,.29-1A1.88,1.88,0,0,0,9.28.55,3.79,3.79,0,0,0,7.08,0H4.46V3.58H2.9a3.43,3.43,0,0,0-2.14.59A2,2,0,0,0,0,5.9,1.94,1.94,0,0,0,.38,7.09a1.72,1.72,0,0,0,1.12.65,1.82,1.82,0,0,0-.83.65,1.77,1.77,0,0,0-.29,1A1.88,1.88,0,0,0,1.17,11a3.79,3.79,0,0,0,2.2.55H6V8H7.55A3.4,3.4,0,0,0,9.7,7.39a2.06,2.06,0,0,0,.75-1.73,1.9,1.9,0,0,0-.38-1.19"/><path class="cls-1" d="M72,27.46v-.29a.43.43,0,0,0,.17,0,.16.16,0,0,0,.1-.1.54.54,0,0,0,0-.25V25.1a1.77,1.77,0,0,1,0-.23c0-.07,0-.13,0-.17H72v-.34h1.22a1.49,1.49,0,0,1,.84.2.61.61,0,0,1,.28.6.46.46,0,0,1-.08.25.68.68,0,0,1-.2.22,1.42,1.42,0,0,1-.35.15h0a1.07,1.07,0,0,1,.65.29.69.69,0,0,1,.2.49.88.88,0,0,1-.13.49.92.92,0,0,1-.38.29,1.42,1.42,0,0,1-.55.1Zm.93-.31h.43a.48.48,0,0,0,.39-.17.63.63,0,0,0,.12-.4.53.53,0,0,0-.08-.32.46.46,0,0,0-.21-.16.65.65,0,0,0-.27-.05H73V27C72.94,27.05,72.94,27.11,72.93,27.15Zm0-1.42h.23a.59.59,0,0,0,.29-.09.49.49,0,0,0,.16-.21.92.92,0,0,0,0-.29.47.47,0,0,0-.07-.28.38.38,0,0,0-.17-.14.6.6,0,0,0-.22,0l-.13,0a.24.24,0,0,0-.1.1.73.73,0,0,0,0,.25Z"/><path class="cls-1" d="M76.09,27.46s0-.08,0-.1a.34.34,0,0,0,0-.1.85.85,0,0,1-.31.21,1,1,0,0,1-.34.06.57.57,0,0,1-.44-.17.57.57,0,0,1-.16-.42.61.61,0,0,1,.11-.36.81.81,0,0,1,.28-.24,2.08,2.08,0,0,1,.4-.15,3.11,3.11,0,0,1,.44-.06v-.22a.66.66,0,0,0,0-.21.31.31,0,0,0-.1-.15.27.27,0,0,0-.19,0,.45.45,0,0,0-.16,0,.34.34,0,0,0-.14.09s0,.05,0,.08a.31.31,0,0,1,0,.09.29.29,0,0,1-.07.18.25.25,0,0,1-.22.09A.23.23,0,0,1,75,26a.31.31,0,0,1-.07-.21.45.45,0,0,1,.12-.31,1,1,0,0,1,.34-.2,1.41,1.41,0,0,1,.47-.07.89.89,0,0,1,.6.2.85.85,0,0,1,.21.64v.47a1.85,1.85,0,0,0,0,.25v.17c0,.08,0,.15,0,.22h.28v.34Zm0-1-.23,0-.19.08a.4.4,0,0,0-.13.13.34.34,0,0,0,0,.17.25.25,0,0,0,.08.18.35.35,0,0,0,.18.05.37.37,0,0,0,.18-.05.46.46,0,0,0,.16-.11v-.49Z"/><path class="cls-1" d="M77.17,27.17a.23.23,0,0,0,.18-.05.23.23,0,0,0,.07-.13,1.34,1.34,0,0,0,0-.21v-.73a1.21,1.21,0,0,1,0-.18,1.27,1.27,0,0,1,0-.2h-.31v-.33l.35,0,.22-.06.11-.05h.24v1.53a1.16,1.16,0,0,1,0,.17,1.55,1.55,0,0,1,0,.22h.29v.34H77.17Zm.55-2.3a.3.3,0,0,1-.24-.11.33.33,0,0,1-.1-.25.35.35,0,0,1,.1-.26.33.33,0,0,1,.24-.1.29.29,0,0,1,.23.1.35.35,0,0,1,.1.26.37.37,0,0,1-.09.25A.3.3,0,0,1,77.72,24.87Z"/><path class="cls-1" d="M79.47,27.53a1.15,1.15,0,0,1-.26,0,.53.53,0,0,1-.22-.12.66.66,0,0,1-.15-.25,1.36,1.36,0,0,1-.06-.45V25.62h-.3v-.36a.48.48,0,0,0,.27-.09.93.93,0,0,0,.21-.23.88.88,0,0,0,.13-.3h.32v.62H80v.34h-.56v1.08a1.23,1.23,0,0,0,0,.2.45.45,0,0,0,.08.17.22.22,0,0,0,.17.06.49.49,0,0,0,.17,0,.76.76,0,0,0,.23-.22l.21.19a1.16,1.16,0,0,1-.25.28,1,1,0,0,1-.24.14,1,1,0,0,1-.21.05Z"/><path class="cls-1" d="M82.8,27.46a.87.87,0,0,0,0-.1v-.1a.89.89,0,0,1-.32.21,1,1,0,0,1-.34.06.59.59,0,0,1-.44-.17.61.61,0,0,1-.16-.42.61.61,0,0,1,.11-.36.76.76,0,0,1,.29-.24,2.26,2.26,0,0,1,.39-.15,3.32,3.32,0,0,1,.44-.06v-.22a.66.66,0,0,0,0-.21.38.38,0,0,0-.09-.15.3.3,0,0,0-.2,0,.45.45,0,0,0-.16,0,.3.3,0,0,0-.13.09l0,.08s0,.06,0,.09a.37.37,0,0,1-.07.18.27.27,0,0,1-.23.09.24.24,0,0,1-.2-.09.31.31,0,0,1-.07-.21.42.42,0,0,1,.13-.31.88.88,0,0,1,.33-.2,1.41,1.41,0,0,1,.47-.07.73.73,0,0,1,.81.84v.72a1.16,1.16,0,0,1,0,.17,1.55,1.55,0,0,1,0,.22h.29v.34Zm0-1-.24,0-.19.08-.13.13a.33.33,0,0,0,0,.17.22.22,0,0,0,.08.18.34.34,0,0,0,.17.05.41.41,0,0,0,.19-.05.57.57,0,0,0,.16-.11v-.49Z"/><path class="cls-1" d="M83.81,27.17a.24.24,0,0,0,.18-.05.18.18,0,0,0,.06-.13,1.25,1.25,0,0,0,0-.21v-2c0-.07,0-.13,0-.2h-.3v-.33l.34,0a.85.85,0,0,0,.22-.06l.11-.05h.24v2.78c0,.08,0,.15,0,.22H85v.34H83.81Z"/><path class="cls-1" d="M86.45,27.46v-.29a.47.47,0,0,0,.17,0,.16.16,0,0,0,.1-.1.54.54,0,0,0,0-.25V25.1a1.77,1.77,0,0,1,0-.23.81.81,0,0,1,0-.17h-.33v-.34h1.22a1.44,1.44,0,0,1,.83.2.6.6,0,0,1,.29.6.46.46,0,0,1-.08.25.62.62,0,0,1-.21.22,1.2,1.2,0,0,1-.34.15h0a1,1,0,0,1,.64.29.7.7,0,0,1,.21.49.81.81,0,0,1-.14.49.86.86,0,0,1-.38.29,1.35,1.35,0,0,1-.55.1Zm.93-.31h.43A.49.49,0,0,0,88.2,27a.63.63,0,0,0,.12-.4.61.61,0,0,0-.08-.32.44.44,0,0,0-.22-.16.59.59,0,0,0-.27-.05H87.4v.72a1.55,1.55,0,0,1,0,.22A.81.81,0,0,1,87.38,27.15Zm0-1.42h.23a.59.59,0,0,0,.29-.09.41.41,0,0,0,.15-.21.93.93,0,0,0,.05-.29.47.47,0,0,0-.07-.28.4.4,0,0,0-.18-.14.54.54,0,0,0-.22,0l-.13,0a.3.3,0,0,0-.09.1.73.73,0,0,0,0,.25Z"/><path class="cls-1" d="M90.54,27.46a.41.41,0,0,1,0-.1s0-.07,0-.1a.81.81,0,0,1-.32.21,1,1,0,0,1-.33.06.57.57,0,0,1-.44-.17.57.57,0,0,1-.16-.42.55.55,0,0,1,.11-.36.73.73,0,0,1,.28-.24,2.08,2.08,0,0,1,.4-.15,3.18,3.18,0,0,1,.43-.06v-.22a1.25,1.25,0,0,0,0-.21.4.4,0,0,0-.1-.15.28.28,0,0,0-.19,0,.51.51,0,0,0-.17,0,.38.38,0,0,0-.13.09s0,.05,0,.08a.31.31,0,0,1,0,.09.29.29,0,0,1-.07.18.27.27,0,0,1-.22.09.26.26,0,0,1-.21-.09.38.38,0,0,1-.07-.21.46.46,0,0,1,.13-.31.85.85,0,0,1,.34-.2,1.35,1.35,0,0,1,.46-.07.74.74,0,0,1,.82.84v.25a1.62,1.62,0,0,1,0,.22v.42c0,.08,0,.15,0,.22h.29v.34Zm-.05-1-.23,0a.68.68,0,0,0-.19.08.4.4,0,0,0-.13.13.34.34,0,0,0,0,.17.22.22,0,0,0,.08.18.34.34,0,0,0,.17.05.41.41,0,0,0,.19-.05.57.57,0,0,0,.16-.11v-.49Z"/><path class="cls-1" d="M92.46,27.53a1,1,0,0,1-.25,0,.43.43,0,0,1-.22-.12.57.57,0,0,1-.16-.25,1.36,1.36,0,0,1-.06-.45V25.62h-.3v-.36a.46.46,0,0,0,.27-.09,1,1,0,0,0,.22-.23.86.86,0,0,0,.12-.3h.32v.62H93v.34h-.56v1.08a1.23,1.23,0,0,0,0,.2.45.45,0,0,0,.08.17.22.22,0,0,0,.17.06.49.49,0,0,0,.17,0,.66.66,0,0,0,.23-.22l.21.19a1.16,1.16,0,0,1-.25.28,1,1,0,0,1-.24.14,1,1,0,0,1-.21.05Z"/><path class="cls-1" d="M94.32,27.53a1.09,1.09,0,0,1-.26,0,.53.53,0,0,1-.22-.12.66.66,0,0,1-.15-.25,1.36,1.36,0,0,1-.06-.45V25.62h-.3v-.36a.43.43,0,0,0,.26-.09.8.8,0,0,0,.22-.23.86.86,0,0,0,.12-.3h.33v.62h.56v.34h-.56v1.08a1.23,1.23,0,0,0,0,.2.34.34,0,0,0,.08.17.2.2,0,0,0,.16.06.45.45,0,0,0,.17,0,.66.66,0,0,0,.23-.22l.22.19a1.41,1.41,0,0,1-.25.28,1.28,1.28,0,0,1-.25.14.84.84,0,0,1-.2.05Z"/><path class="cls-1" d="M96.31,27.53a1.15,1.15,0,0,1-.57-.14.94.94,0,0,1-.38-.41,1.21,1.21,0,0,1-.14-.62,1.15,1.15,0,0,1,.14-.57,1.16,1.16,0,0,1,.38-.44,1,1,0,0,1,.58-.16,1.49,1.49,0,0,1,.36,0,.83.83,0,0,1,.32.17.93.93,0,0,1,.23.34,1.34,1.34,0,0,1,.08.53l-1.44,0a1.44,1.44,0,0,0,.06.43.67.67,0,0,0,.19.3.58.58,0,0,0,.37.11l.2,0a1,1,0,0,0,.23-.11.93.93,0,0,0,.21-.19l.2.18a1.1,1.1,0,0,1-.34.34,1.14,1.14,0,0,1-.36.16A1.27,1.27,0,0,1,96.31,27.53ZM95.89,26h.81a.76.76,0,0,0,0-.29.31.31,0,0,0-.12-.15.32.32,0,0,0-.19-.05.34.34,0,0,0-.3.14A.75.75,0,0,0,95.89,26Z"/><path class="cls-1" d="M97.63,27.17a.24.24,0,0,0,.18-.05.32.32,0,0,0,.07-.13,1.34,1.34,0,0,0,0-.21v-.92c0-.06,0-.13,0-.19H97.6v-.33h.18a1,1,0,0,0,.31-.05.74.74,0,0,0,.19-.08h.21a1.08,1.08,0,0,1,0,.16v.21a2.49,2.49,0,0,1,.22-.23,1.35,1.35,0,0,1,.21-.13.52.52,0,0,1,.21,0,.46.46,0,0,1,.27.08.32.32,0,0,1,.12.28.35.35,0,0,1,0,.14.4.4,0,0,1-.1.12.27.27,0,0,1-.18.05.41.41,0,0,1-.18-.05.25.25,0,0,1-.11-.2.23.23,0,0,0-.17.07,1.29,1.29,0,0,0-.16.17.85.85,0,0,0-.1.18v.89c0,.08,0,.15,0,.22h.28v.34H97.63Z"/><path class="cls-1" d="M99.65,28.65a.53.53,0,0,1-.36-.11.34.34,0,0,1-.11-.25.29.29,0,0,1,.07-.2.25.25,0,0,1,.2-.1.27.27,0,0,1,.2.07.25.25,0,0,1,.07.19v.08h.08a.17.17,0,0,0,.12-.05.46.46,0,0,0,0-.14.71.71,0,0,0,0-.14V25.87a1.41,1.41,0,0,0,0-.2h-.3v-.33l.34,0,.22-.06.12-.05h.23v2.23a1.64,1.64,0,0,1-.12.67.88.88,0,0,1-.33.4A.86.86,0,0,1,99.65,28.65Zm.62-3.78a.34.34,0,0,1-.25-.11.37.37,0,0,1-.09-.25.35.35,0,0,1,.1-.26.33.33,0,0,1,.24-.1.29.29,0,0,1,.23.1.4.4,0,0,1,.1.26.37.37,0,0,1-.09.25A.3.3,0,0,1,100.27,24.87Z"/><path class="cls-1" d="M102.11,27.53a1.13,1.13,0,0,1-.56-.14,1,1,0,0,1-.39-.41,1.32,1.32,0,0,1-.13-.62,1.25,1.25,0,0,1,.13-.57,1.1,1.1,0,0,1,.39-.44,1,1,0,0,1,.58-.16,1.49,1.49,0,0,1,.36,0,.9.9,0,0,1,.32.17,1.07,1.07,0,0,1,.23.34,1.56,1.56,0,0,1,.08.53l-1.45,0a1.44,1.44,0,0,0,.06.43.69.69,0,0,0,.2.3.57.57,0,0,0,.36.11l.2,0a.7.7,0,0,0,.23-.11,1,1,0,0,0,.22-.19l.2.18a1.22,1.22,0,0,1-.34.34,1.14,1.14,0,0,1-.36.16A1.35,1.35,0,0,1,102.11,27.53ZM101.7,26h.81a.76.76,0,0,0-.05-.29.28.28,0,0,0-.13-.15.27.27,0,0,0-.18-.05.34.34,0,0,0-.3.14A.66.66,0,0,0,101.7,26Z"/><path class="cls-1" d="M104.46,27.53a1.2,1.2,0,0,1-.57-.14,1,1,0,0,1-.38-.41,1.32,1.32,0,0,1-.13-.62,1.25,1.25,0,0,1,.13-.57,1.1,1.1,0,0,1,.39-.44,1,1,0,0,1,.58-.16,1.49,1.49,0,0,1,.36,0,.76.76,0,0,1,.54.51,1.33,1.33,0,0,1,.09.53l-1.45,0a1.44,1.44,0,0,0,.06.43.69.69,0,0,0,.2.3.57.57,0,0,0,.36.11l.2,0a.8.8,0,0,0,.23-.11,1,1,0,0,0,.22-.19l.2.18a1.22,1.22,0,0,1-.34.34,1.14,1.14,0,0,1-.36.16A1.35,1.35,0,0,1,104.46,27.53ZM104.05,26h.81a.76.76,0,0,0,0-.29.28.28,0,0,0-.13-.15.27.27,0,0,0-.18-.05.37.37,0,0,0-.31.14A.74.74,0,0,0,104.05,26Z"/><path class="cls-1" d="M107,27.17a.4.4,0,0,0,.17,0s.08-.05.11-.1a.72.72,0,0,0,0-.25V24.87a1.16,1.16,0,0,0,0-.17H107v-.34h1.25a2,2,0,0,1,.68.1.88.88,0,0,1,.44.33.84.84,0,0,1,.15.57.81.81,0,0,1-.08.34.9.9,0,0,1-.24.31,1.28,1.28,0,0,1-.38.23,1.8,1.8,0,0,1-.55.1h-.32V27c0,.07,0,.13,0,.16h.37v.34H107Zm1-1.15h.2a.92.92,0,0,0,.4-.08.56.56,0,0,0,.22-.24.86.86,0,0,0,.07-.38.85.85,0,0,0-.06-.35.46.46,0,0,0-.15-.2.5.5,0,0,0-.2-.08.58.58,0,0,0-.18,0l-.16,0a.19.19,0,0,0-.1.1.59.59,0,0,0,0,.23Z"/><path class="cls-1" d="M111.05,27.17a.24.24,0,0,0,.18-.05.23.23,0,0,0,.07-.13,1.34,1.34,0,0,0,0-.21v-.62a.92.92,0,0,0-.09-.43.31.31,0,0,0-.27-.14.63.63,0,0,0-.22.05.57.57,0,0,0-.18.12v1.16c0,.08,0,.15,0,.22h.29v.34h-1.15v-.29a.24.24,0,0,0,.18-.05.23.23,0,0,0,.06-.13,1.25,1.25,0,0,0,0-.21v-2c0-.07,0-.13,0-.2h-.3v-.33l.34,0a.85.85,0,0,0,.22-.06l.11-.05h.24v1.29l.2-.12a1.17,1.17,0,0,1,.24-.09l.2,0a.7.7,0,0,1,.58.23,1.28,1.28,0,0,1,.17.74v.59a1.16,1.16,0,0,1,0,.17,1.55,1.55,0,0,1,0,.22h.29v.34h-1.16Z"/><path class="cls-1" d="M113.69,27.46s0-.08,0-.1v-.1a.89.89,0,0,1-.32.21,1,1,0,0,1-.34.06.57.57,0,0,1-.44-.17.57.57,0,0,1-.16-.42.61.61,0,0,1,.11-.36.81.81,0,0,1,.28-.24,2.37,2.37,0,0,1,.4-.15,3.32,3.32,0,0,1,.44-.06v-.22a.66.66,0,0,0,0-.21.31.31,0,0,0-.1-.15.27.27,0,0,0-.19,0,.45.45,0,0,0-.16,0,.42.42,0,0,0-.14.09.18.18,0,0,1,0,.08s0,.06,0,.09A.31.31,0,0,1,113,26a.25.25,0,0,1-.22.09.24.24,0,0,1-.2-.09.31.31,0,0,1-.07-.21.45.45,0,0,1,.12-.31,1,1,0,0,1,.34-.2,1.41,1.41,0,0,1,.47-.07.89.89,0,0,1,.6.2.85.85,0,0,1,.21.64v.72s0,.1,0,.17,0,.15,0,.22h.28v.34Zm0-1-.23,0-.19.08a.53.53,0,0,0-.13.13.33.33,0,0,0,0,.17.22.22,0,0,0,.08.18.31.31,0,0,0,.17.05.45.45,0,0,0,.19-.05.53.53,0,0,0,.15-.11v-.49Z"/><path class="cls-1" d="M114.78,27.17c.08,0,.14,0,.17-.05A.19.19,0,0,0,115,27a1.25,1.25,0,0,0,0-.21v-.92c0-.06,0-.13,0-.19h-.31v-.33h.18a1,1,0,0,0,.31-.05.74.74,0,0,0,.19-.08h.22s0,.08,0,.16,0,.15,0,.21a1.63,1.63,0,0,1,.22-.23.8.8,0,0,1,.21-.13.52.52,0,0,1,.21,0,.5.5,0,0,1,.27.08.35.35,0,0,1,.11.28.35.35,0,0,1,0,.14.23.23,0,0,1-.1.12.24.24,0,0,1-.18.05.41.41,0,0,1-.18-.05.24.24,0,0,1-.1-.2.27.27,0,0,0-.18.07,1.29,1.29,0,0,0-.16.17,1.5,1.5,0,0,0-.09.18v.89c0,.08,0,.15,0,.22h.29v.34h-1.15Z"/><path class="cls-1" d="M116.89,27.46v-.29c.08,0,.14,0,.17-.05a.19.19,0,0,0,.07-.13,1.25,1.25,0,0,0,0-.21v-.92c0-.06,0-.13,0-.19h-.3v-.33l.34,0,.22-.06.11-.05h.22a.31.31,0,0,1,0,.11.28.28,0,0,0,0,.1,1.65,1.65,0,0,1,.32-.18,1,1,0,0,1,.33-.06.67.67,0,0,1,.33.07.5.5,0,0,1,.21.22,1.41,1.41,0,0,1,.35-.21,1,1,0,0,1,.37-.08.7.7,0,0,1,.54.2,1.1,1.1,0,0,1,.18.71v.82c0,.08,0,.15,0,.22h.29v.34h-1.11v-.29a.16.16,0,0,0,.14-.05.15.15,0,0,0,.06-.13,1.25,1.25,0,0,0,0-.21v-.67a.75.75,0,0,0-.1-.4.3.3,0,0,0-.24-.11.52.52,0,0,0-.21,0,.77.77,0,0,0-.18.1.64.64,0,0,1,0,.2,1.55,1.55,0,0,1,0,.22v.76c0,.08,0,.15,0,.22h.29v.34h-1.14v-.29c.08,0,.14,0,.17-.05a.23.23,0,0,0,.06-.13,1.25,1.25,0,0,0,0-.21V26.1a.72.72,0,0,0-.08-.4.34.34,0,0,0-.24-.11.46.46,0,0,0-.2.05.66.66,0,0,0-.17.12v1.16c0,.08,0,.15,0,.22H118v.34Z"/><path class="cls-1" d="M122.16,27.46a.41.41,0,0,1,0-.1.34.34,0,0,1,0-.1.89.89,0,0,1-.32.21,1,1,0,0,1-.34.06.61.61,0,0,1-.49-1,.85.85,0,0,1,.29-.24,2.08,2.08,0,0,1,.4-.15,3.18,3.18,0,0,1,.43-.06v-.22a1.25,1.25,0,0,0,0-.21.4.4,0,0,0-.1-.15.28.28,0,0,0-.19,0,.51.51,0,0,0-.17,0,.38.38,0,0,0-.13.09s0,.05,0,.08a.31.31,0,0,1,0,.09.29.29,0,0,1-.07.18.27.27,0,0,1-.22.09.26.26,0,0,1-.21-.09.38.38,0,0,1-.07-.21.42.42,0,0,1,.13-.31.88.88,0,0,1,.33-.2,1.45,1.45,0,0,1,.47-.07.73.73,0,0,1,.81.84v.89c0,.08,0,.15,0,.22H123v.34Zm0-1-.23,0a.93.93,0,0,0-.2.08.49.49,0,0,0-.12.13.34.34,0,0,0,0,.17.22.22,0,0,0,.08.18.34.34,0,0,0,.17.05.41.41,0,0,0,.19-.05.57.57,0,0,0,.16-.11v-.49Z"/><path class="cls-1" d="M124.28,27.53a1.08,1.08,0,0,1-.54-.13,1,1,0,0,1-.4-.39,1.13,1.13,0,0,1-.14-.6,1.19,1.19,0,0,1,.08-.47,1.09,1.09,0,0,1,.23-.39,1.18,1.18,0,0,1,.37-.26,1,1,0,0,1,.46-.1,1.28,1.28,0,0,1,.47.08.72.72,0,0,1,.28.23.52.52,0,0,1,.09.29.37.37,0,0,1-.07.23.29.29,0,0,1-.22.1.26.26,0,0,1-.23-.09.32.32,0,0,1-.07-.19.38.38,0,0,1,0-.1,1,1,0,0,1,0-.1.2.2,0,0,0-.09-.09.31.31,0,0,0-.12-.05.4.4,0,0,0-.11,0,.46.46,0,0,0-.35.21,1,1,0,0,0-.13.57,1.77,1.77,0,0,0,0,.41.74.74,0,0,0,.19.32.5.5,0,0,0,.34.13.8.8,0,0,0,.36-.09.91.91,0,0,0,.3-.25l.2.2a1.29,1.29,0,0,1-.33.33,1,1,0,0,1-.34.16A1.24,1.24,0,0,1,124.28,27.53Z"/><path class="cls-1" d="M126.54,27.53a1.13,1.13,0,0,1-.56-.14,1,1,0,0,1-.39-.41,1.32,1.32,0,0,1-.13-.62,1.25,1.25,0,0,1,.13-.57,1.1,1.1,0,0,1,.39-.44,1,1,0,0,1,.58-.16,1.49,1.49,0,0,1,.36,0,.9.9,0,0,1,.32.17,1.07,1.07,0,0,1,.23.34,1.56,1.56,0,0,1,.08.53l-1.45,0a1.44,1.44,0,0,0,.06.43.69.69,0,0,0,.2.3.57.57,0,0,0,.36.11l.2,0a.7.7,0,0,0,.23-.11,1,1,0,0,0,.22-.19l.2.18a1.22,1.22,0,0,1-.34.34,1.14,1.14,0,0,1-.36.16A1.35,1.35,0,0,1,126.54,27.53ZM126.13,26h.81a.76.76,0,0,0,0-.29.28.28,0,0,0-.13-.15.27.27,0,0,0-.18-.05.34.34,0,0,0-.3.14A.66.66,0,0,0,126.13,26Z"/><path class="cls-1" d="M128.78,27.53a.78.78,0,0,1-.43-.1.61.61,0,0,1-.23-.32,1.71,1.71,0,0,1-.07-.55v-.69a1.41,1.41,0,0,0,0-.2h-.31v-.33h0a1.63,1.63,0,0,0,.43-.05.88.88,0,0,0,.2-.08h.24v1.34a1,1,0,0,0,.08.43.25.25,0,0,0,.24.13.53.53,0,0,0,.23-.06.7.7,0,0,0,.19-.15v-1c0-.07,0-.14,0-.2h-.31v-.33h.1a1.38,1.38,0,0,0,.37-.05.88.88,0,0,0,.2-.08H130v1.7a1.5,1.5,0,0,1,0,.22h.29v.34h-.83s0-.08,0-.12,0-.07,0-.11a1.94,1.94,0,0,1-.29.21A.75.75,0,0,1,128.78,27.53Z"/><path class="cls-1" d="M131.46,27.53a1.09,1.09,0,0,1-.26,0,.53.53,0,0,1-.22-.12.66.66,0,0,1-.15-.25,1.36,1.36,0,0,1-.06-.45V25.62h-.3v-.36a.48.48,0,0,0,.27-.09.93.93,0,0,0,.21-.23.86.86,0,0,0,.12-.3h.33v.62H132v.34h-.55v1.08a1.23,1.23,0,0,0,0,.2.34.34,0,0,0,.08.17.21.21,0,0,0,.16.06.41.41,0,0,0,.17,0,.59.59,0,0,0,.23-.22l.22.19a1.41,1.41,0,0,1-.25.28,1.62,1.62,0,0,1-.24.14,1,1,0,0,1-.21.05Z"/><path class="cls-1" d="M132.4,27.17a.23.23,0,0,0,.18-.05.23.23,0,0,0,.07-.13,1.34,1.34,0,0,0,0-.21v-.73a1.21,1.21,0,0,1,0-.18,1.27,1.27,0,0,1,0-.2h-.31v-.33l.35,0,.22-.06.11-.05h.24v1.53a1.16,1.16,0,0,1,0,.17,1.55,1.55,0,0,1,0,.22h.29v.34H132.4Zm.55-2.3a.3.3,0,0,1-.24-.11.33.33,0,0,1-.1-.25.35.35,0,0,1,.1-.26.33.33,0,0,1,.24-.1.29.29,0,0,1,.23.1.35.35,0,0,1,.1.26.37.37,0,0,1-.09.25A.3.3,0,0,1,133,24.87Z"/><path class="cls-1" d="M134.88,27.53a1.08,1.08,0,0,1-.54-.13A1,1,0,0,1,134,27a1.14,1.14,0,0,1-.15-.6,1.4,1.4,0,0,1,.08-.47,1.28,1.28,0,0,1,.24-.39,1,1,0,0,1,.36-.26,1,1,0,0,1,.46-.1,1.24,1.24,0,0,1,.47.08.72.72,0,0,1,.28.23.46.46,0,0,1,.1.29.38.38,0,0,1-.08.23.27.27,0,0,1-.22.1.26.26,0,0,1-.23-.09.32.32,0,0,1-.07-.19.44.44,0,0,1,0-.1.18.18,0,0,1,0-.1.28.28,0,0,0-.1-.09.31.31,0,0,0-.12-.05.4.4,0,0,0-.11,0,.44.44,0,0,0-.34.21,1,1,0,0,0-.14.57,1.35,1.35,0,0,0,.06.41.64.64,0,0,0,.18.32.52.52,0,0,0,.34.13.8.8,0,0,0,.36-.09.91.91,0,0,0,.3-.25l.2.2a1.15,1.15,0,0,1-.33.33,1,1,0,0,1-.34.16A1.24,1.24,0,0,1,134.88,27.53Z"/><path class="cls-1" d="M137.34,27.46a.87.87,0,0,0,0-.1v-.1a.89.89,0,0,1-.32.21,1,1,0,0,1-.34.06.59.59,0,0,1-.44-.17.61.61,0,0,1-.16-.42.61.61,0,0,1,.11-.36.76.76,0,0,1,.29-.24,2.26,2.26,0,0,1,.39-.15,3.32,3.32,0,0,1,.44-.06v-.22a.66.66,0,0,0,0-.21.38.38,0,0,0-.09-.15.3.3,0,0,0-.2,0,.45.45,0,0,0-.16,0,.3.3,0,0,0-.13.09.3.3,0,0,1,0,.08s0,.06,0,.09a.37.37,0,0,1-.07.18.27.27,0,0,1-.23.09.25.25,0,0,1-.2-.09.31.31,0,0,1-.07-.21.42.42,0,0,1,.13-.31.88.88,0,0,1,.33-.2,1.41,1.41,0,0,1,.47-.07.73.73,0,0,1,.81.84v.72a1.16,1.16,0,0,1,0,.17,1.55,1.55,0,0,1,0,.22h.29v.34Zm-.05-1-.24,0-.19.08a.8.8,0,0,0-.13.13.33.33,0,0,0,0,.17.22.22,0,0,0,.08.18.34.34,0,0,0,.17.05.41.41,0,0,0,.19-.05.57.57,0,0,0,.16-.11v-.49Z"/><path class="cls-1" d="M138.35,27.17a.24.24,0,0,0,.18-.05.18.18,0,0,0,.06-.13,1.25,1.25,0,0,0,0-.21v-2c0-.07,0-.13,0-.2h-.3v-.33l.34,0a.85.85,0,0,0,.22-.06l.11-.05h.24v2.78c0,.08,0,.15,0,.22h.29v.34h-1.15Z"/></g></g></svg>