<svg xmlns="http://www.w3.org/2000/svg" viewBox="0 0 139.5 28.3"><defs><style>.cls-1{fill:#62c6c2;}.cls-2{fill:#dadbda;}</style></defs><g id="Layer_2" data-name="Layer 2"><g id="Layer_1-2" data-name="Layer 1"><path class="cls-1" d="M15.72,13.07V18h3.2A3.19,3.19,0,0,0,21,17.43a2.17,2.17,0,0,0,.72-1.77A2.54,2.54,0,0,0,21,13.74a3,3,0,0,0-2.14-.67Zm0-2.38H18a3.46,3.46,0,0,0,2.13-.57,2,2,0,0,0,.74-1.65,2.07,2.07,0,0,0-.75-1.76,3.66,3.66,0,0,0-2.24-.56H15.72Zm-3.44,10V3.49H17.9a8.2,8.2,0,0,1,4.74,1.19A4,4,0,0,1,24.33,8.2a3.63,3.63,0,0,1-2.4,3.51,3.71,3.71,0,0,1,2.42,1.4,4.17,4.17,0,0,1,.81,2.55,4.44,4.44,0,0,1-1.63,3.74,7.37,7.37,0,0,1-4.61,1.27Z"/><path class="cls-1" d="M30.94,18.37a3,3,0,0,0,1.61-.45,2.41,2.41,0,0,0,1-1V15.07H31.58a2.31,2.31,0,0,0-1.66.55A1.78,1.78,0,0,0,29.36,17a1.32,1.32,0,0,0,.42,1,1.64,1.64,0,0,0,1.16.39m3.15,2.3a9.07,9.07,0,0,1-.32-.92,6.81,6.81,0,0,1-.2-1,4.63,4.63,0,0,1-1.4,1.55,3.52,3.52,0,0,1-2.08.61,4.32,4.32,0,0,1-3.09-1,3.7,3.7,0,0,1-1.08-2.81,3.38,3.38,0,0,1,1.44-2.91,7.22,7.22,0,0,1,4.22-1h1.93v-1A2,2,0,0,0,33,10.69a1.89,1.89,0,0,0-1.44-.51,1.87,1.87,0,0,0-1.29.41,1.42,1.42,0,0,0-.45,1.11H26.53l0-.07a3.21,3.21,0,0,1,1.41-2.79,6.12,6.12,0,0,1,3.9-1.17,5.72,5.72,0,0,1,3.72,1.15A4.06,4.06,0,0,1,37,12.14v5.27a10.08,10.08,0,0,0,.13,1.69,9.17,9.17,0,0,0,.43,1.57Z"/><path class="cls-1" d="M46.77,14.39a6.7,6.7,0,0,0-.54-3,1.93,1.93,0,0,0-1.87-1.09,2.61,2.61,0,0,0-1.36.33,2.38,2.38,0,0,0-.87,1V17a2.16,2.16,0,0,0,.88.89,2.86,2.86,0,0,0,1.37.31,2,2,0,0,0,1.86-.94,5.4,5.4,0,0,0,.53-2.66Zm3.44.25a7.45,7.45,0,0,1-1.28,4.56,4.3,4.3,0,0,1-3.68,1.71,3.83,3.83,0,0,1-2-.47,4,4,0,0,1-1.41-1.38l-.28,1.61H38.69V2.27h3.44v7a4,4,0,0,1,1.32-1.18,3.8,3.8,0,0,1,1.78-.41,4.22,4.22,0,0,1,3.7,1.83,8.4,8.4,0,0,1,1.28,4.89Z"/><path class="cls-1" d="M60.72,11.78h3.13A2.88,2.88,0,0,0,66,11a2.81,2.81,0,0,0,.74-2A2.89,2.89,0,0,0,66,7a2.83,2.83,0,0,0-2.18-.8H60.72Zm0,2.66v6.23H57.28V3.49h6.57A6.77,6.77,0,0,1,68.5,5a5,5,0,0,1,1.7,4,5,5,0,0,1-1.7,4,6.77,6.77,0,0,1-4.65,1.5Z"/><path class="cls-1" d="M75.29,9.52a4.33,4.33,0,0,1,1.47-1.36,3.86,3.86,0,0,1,1.94-.49A3.93,3.93,0,0,1,81.83,9,6.21,6.21,0,0,1,83,13.09v7.58H79.52v-7.6A3.55,3.55,0,0,0,79,11a1.68,1.68,0,0,0-1.43-.62,3.38,3.38,0,0,0-1.37.26,2.38,2.38,0,0,0-.95.72v9.35H71.84V2.27h3.45Z"/><path class="cls-1" d="M89.45,18.37a2.94,2.94,0,0,0,1.61-.45,2.41,2.41,0,0,0,1-1V15.07H90.09a2.32,2.32,0,0,0-1.66.55A1.78,1.78,0,0,0,87.87,17a1.32,1.32,0,0,0,.42,1,1.64,1.64,0,0,0,1.16.39m3.15,2.3a9.07,9.07,0,0,1-.32-.92,6.81,6.81,0,0,1-.2-1,4.63,4.63,0,0,1-1.4,1.55,3.5,3.5,0,0,1-2.08.61,4.32,4.32,0,0,1-3.09-1,3.7,3.7,0,0,1-1.08-2.81,3.38,3.38,0,0,1,1.44-2.91,7.22,7.22,0,0,1,4.22-1H92v-1a2,2,0,0,0-.48-1.42,1.89,1.89,0,0,0-1.44-.51,1.87,1.87,0,0,0-1.29.41,1.42,1.42,0,0,0-.45,1.11H85l0-.07a3.21,3.21,0,0,1,1.41-2.79,6.12,6.12,0,0,1,3.9-1.17,5.72,5.72,0,0,1,3.72,1.15,4.06,4.06,0,0,1,1.42,3.32v5.27a10.08,10.08,0,0,0,.13,1.69A9.17,9.17,0,0,0,96,20.67Z"/><path class="cls-1" d="M104.28,10.86l-1.26,0a2.23,2.23,0,0,0-1.26.32A2,2,0,0,0,101,12v8.62H97.57V7.9h3.19l.16,1.89a4,4,0,0,1,1.16-1.56,2.56,2.56,0,0,1,1.65-.56,2.29,2.29,0,0,1,.47,0l.45.1Z"/><path class="cls-1" d="M108.79,7.9l.14,1.69a4.27,4.27,0,0,1,1.54-1.42,4.34,4.34,0,0,1,2.14-.5,3.9,3.9,0,0,1,2.1.54A3.36,3.36,0,0,1,116,9.85a4.36,4.36,0,0,1,1.53-1.6,4.13,4.13,0,0,1,2.22-.58,3.62,3.62,0,0,1,3,1.34,6.41,6.41,0,0,1,1.09,4.08v7.58H120.4V13.08a3.52,3.52,0,0,0-.47-2.13,1.67,1.67,0,0,0-1.4-.6,2.28,2.28,0,0,0-2.12,1.22c0,.15,0,.28,0,.39s0,.21,0,.32v8.39H113V13.08a3.65,3.65,0,0,0-.47-2.12,1.68,1.68,0,0,0-1.42-.61,2.64,2.64,0,0,0-1.22.26,2.42,2.42,0,0,0-.87.75v9.31h-3.43V7.9Z"/><path class="cls-1" d="M130.38,18.37a3,3,0,0,0,1.61-.45,2.41,2.41,0,0,0,1-1V15.07H131a2.32,2.32,0,0,0-1.66.55A1.78,1.78,0,0,0,128.8,17a1.32,1.32,0,0,0,.42,1,1.64,1.64,0,0,0,1.16.39m3.15,2.3a9.07,9.07,0,0,1-.32-.92,6.81,6.81,0,0,1-.2-1,4.63,4.63,0,0,1-1.4,1.55,3.52,3.52,0,0,1-2.08.61,4.32,4.32,0,0,1-3.09-1,3.7,3.7,0,0,1-1.08-2.81,3.38,3.38,0,0,1,1.44-2.91,7.22,7.22,0,0,1,4.22-1H133v-1a2,2,0,0,0-.48-1.42,1.89,1.89,0,0,0-1.44-.51,1.87,1.87,0,0,0-1.29.41,1.42,1.42,0,0,0-.45,1.11H126l0-.07a3.21,3.21,0,0,1,1.41-2.79,6.12,6.12,0,0,1,3.9-1.17A5.72,5.72,0,0,1,135,8.82a4.06,4.06,0,0,1,1.42,3.32v5.27a10.08,10.08,0,0,0,.13,1.69,9.17,9.17,0,0,0,.43,1.57Z"/><path class="cls-1" d="M8.52,6.48a1.5,1.5,0,0,1-1,.27H6.07V4.45H7.54a1.43,1.43,0,0,1,1,.31,1.19,1.19,0,0,1,.33.9,1,1,0,0,1-.34.82m-4.13.63H2.92a1.39,1.39,0,0,1-1-.31,1.18,1.18,0,0,1-.32-.9,1,1,0,0,1,.33-.82,1.51,1.51,0,0,1,1-.27H4.39Zm0,3.22h-1a1.77,1.77,0,0,1-1-.26A1,1,0,0,1,2,9.25a.92.92,0,0,1,.35-.77,1.64,1.64,0,0,1,1-.26H4.39Zm1.68-9.1h1a1.68,1.68,0,0,1,1,.27.94.94,0,0,1,.35.81.92.92,0,0,1-.35.77,1.58,1.58,0,0,1-1,.26H6.07Zm4,3.24A1.7,1.7,0,0,0,9,3.82a1.71,1.71,0,0,0,.83-.65,1.76,1.76,0,0,0,.29-1A1.88,1.88,0,0,0,9.28.55,3.79,3.79,0,0,0,7.08,0H4.46V3.58H2.9a3.43,3.43,0,0,0-2.14.59A2,2,0,0,0,0,5.9,1.94,1.94,0,0,0,.38,7.09a1.72,1.72,0,0,0,1.12.65,1.76,1.76,0,0,0-.83.65,1.77,1.77,0,0,0-.29,1A1.88,1.88,0,0,0,1.17,11a3.79,3.79,0,0,0,2.2.55H6V8H7.55A3.4,3.4,0,0,0,9.7,7.39a2.06,2.06,0,0,0,.75-1.73,1.9,1.9,0,0,0-.38-1.19"/><path class="cls-2" d="M72,27.11v-.29a.43.43,0,0,0,.17,0,.14.14,0,0,0,.1-.1.54.54,0,0,0,0-.25V24.75a1.77,1.77,0,0,1,0-.23c0-.07,0-.13,0-.16H72V24h1.22a1.49,1.49,0,0,1,.84.2.61.61,0,0,1,.28.6.46.46,0,0,1-.08.25.68.68,0,0,1-.2.22,1.12,1.12,0,0,1-.35.15h0a1.07,1.07,0,0,1,.65.29.69.69,0,0,1,.2.49.83.83,0,0,1-.13.49.84.84,0,0,1-.38.29,1.42,1.42,0,0,1-.55.1Zm.93-.31h.43a.45.45,0,0,0,.39-.17.63.63,0,0,0,.12-.4.53.53,0,0,0-.08-.32.54.54,0,0,0-.21-.16.86.86,0,0,0-.27,0H73v.94C72.94,26.71,72.94,26.76,72.93,26.8Zm0-1.42h.23a.5.5,0,0,0,.29-.09.49.49,0,0,0,.16-.21.92.92,0,0,0,0-.29.47.47,0,0,0-.07-.28.46.46,0,0,0-.17-.14.6.6,0,0,0-.22,0l-.13,0a.24.24,0,0,0-.1.1.73.73,0,0,0,0,.25Z"/><path class="cls-2" d="M76.09,27.11s0-.07,0-.1a.38.38,0,0,0,0-.1.85.85,0,0,1-.31.21,1,1,0,0,1-.34.06A.57.57,0,0,1,75,27a.56.56,0,0,1-.16-.41.65.65,0,0,1,.11-.37.81.81,0,0,1,.28-.24,1.57,1.57,0,0,1,.4-.14,1.61,1.61,0,0,1,.44-.06v-.23a.66.66,0,0,0,0-.21.24.24,0,0,0-.1-.14.23.23,0,0,0-.19-.05.45.45,0,0,0-.16,0,.34.34,0,0,0-.14.09.15.15,0,0,1,0,.09.22.22,0,0,1,0,.08.27.27,0,0,1-.07.18.25.25,0,0,1-.22.09.23.23,0,0,1-.2-.09.31.31,0,0,1-.07-.21.41.41,0,0,1,.12-.3.89.89,0,0,1,.34-.21,1.41,1.41,0,0,1,.47-.07.89.89,0,0,1,.6.2.85.85,0,0,1,.21.64v.47a1.85,1.85,0,0,0,0,.25v.18c0,.07,0,.14,0,.21h.28v.33Zm0-1-.23,0a.56.56,0,0,0-.19.09.3.3,0,0,0-.13.12.34.34,0,0,0,0,.17.25.25,0,0,0,.08.18.35.35,0,0,0,.18.05.37.37,0,0,0,.18,0,.48.48,0,0,0,.16-.12V26.1Z"/><path class="cls-2" d="M77.17,26.82a.28.28,0,0,0,.18,0,.31.31,0,0,0,.07-.14,1.34,1.34,0,0,0,0-.21V25.7a1.21,1.21,0,0,1,0-.18,1.27,1.27,0,0,1,0-.2h-.31V25l.35,0,.22-.06.11-.05h.24V26.4a1.36,1.36,0,0,1,0,.18,1.48,1.48,0,0,1,0,.21h.29v.33H77.17Zm.55-2.3a.3.3,0,0,1-.24-.11.33.33,0,0,1-.1-.25.35.35,0,0,1,.1-.26.33.33,0,0,1,.24-.1.29.29,0,0,1,.23.1.35.35,0,0,1,.1.26.37.37,0,0,1-.09.25A.3.3,0,0,1,77.72,24.52Z"/><path class="cls-2" d="M79.47,27.18a1.15,1.15,0,0,1-.26,0A.53.53,0,0,1,79,27a.59.59,0,0,1-.15-.25,1.33,1.33,0,0,1-.06-.44V25.28h-.3v-.37a.48.48,0,0,0,.27-.09.93.93,0,0,0,.21-.23.81.81,0,0,0,.13-.3h.32v.62H80v.34h-.56v1.08a1.23,1.23,0,0,0,0,.2.38.38,0,0,0,.08.17.22.22,0,0,0,.17.06.49.49,0,0,0,.17,0,.76.76,0,0,0,.23-.22l.21.2A1.31,1.31,0,0,1,80,27a1,1,0,0,1-.24.14.63.63,0,0,1-.21.05Z"/><path class="cls-2" d="M82.8,27.11s0-.07,0-.1v-.1a.89.89,0,0,1-.32.21,1,1,0,0,1-.34.06.59.59,0,0,1-.44-.17.6.6,0,0,1-.16-.41.65.65,0,0,1,.11-.37.76.76,0,0,1,.29-.24,1.64,1.64,0,0,1,.39-.14,1.67,1.67,0,0,1,.44-.06v-.23a.66.66,0,0,0,0-.21.28.28,0,0,0-.09-.14.25.25,0,0,0-.2-.05.45.45,0,0,0-.16,0,.3.3,0,0,0-.13.09.25.25,0,0,1,0,.09s0,.05,0,.08a.34.34,0,0,1-.07.18.27.27,0,0,1-.23.09.24.24,0,0,1-.2-.09.31.31,0,0,1-.07-.21.38.38,0,0,1,.13-.3.78.78,0,0,1,.33-.21,1.41,1.41,0,0,1,.47-.07.73.73,0,0,1,.81.84v.72a1.36,1.36,0,0,1,0,.18,1.48,1.48,0,0,1,0,.21h.29v.33Zm0-1-.24,0a.66.66,0,0,0-.19.09.49.49,0,0,0-.13.12.33.33,0,0,0,0,.17.22.22,0,0,0,.08.18.34.34,0,0,0,.17.05.41.41,0,0,0,.19,0,.61.61,0,0,0,.16-.12V26.1Z"/><path class="cls-2" d="M83.81,26.82a.3.3,0,0,0,.18,0,.22.22,0,0,0,.06-.14,1.25,1.25,0,0,0,0-.21v-2c0-.07,0-.13,0-.2h-.3v-.33l.34,0,.22,0a.27.27,0,0,0,.11-.06h.24v2.79c0,.07,0,.14,0,.21H85v.33H83.81Z"/><path class="cls-2" d="M86.45,27.11v-.29a.47.47,0,0,0,.17,0,.14.14,0,0,0,.1-.1.54.54,0,0,0,0-.25V24.75a1.77,1.77,0,0,1,0-.23.67.67,0,0,1,0-.16h-.33V24h1.22a1.44,1.44,0,0,1,.83.2.6.6,0,0,1,.29.6.46.46,0,0,1-.08.25.62.62,0,0,1-.21.22,1,1,0,0,1-.34.15h0a1,1,0,0,1,.64.29.7.7,0,0,1,.21.49.77.77,0,0,1-.14.49.79.79,0,0,1-.38.29,1.35,1.35,0,0,1-.55.1Zm.93-.31h.43a.46.46,0,0,0,.39-.17.63.63,0,0,0,.12-.4.61.61,0,0,0-.08-.32.5.5,0,0,0-.22-.16.76.76,0,0,0-.27,0H87.4v.72a1.55,1.55,0,0,1,0,.22A.76.76,0,0,1,87.38,26.8Zm0-1.42h.23a.5.5,0,0,0,.29-.09.41.41,0,0,0,.15-.21.93.93,0,0,0,.05-.29.47.47,0,0,0-.07-.28.49.49,0,0,0-.18-.14.54.54,0,0,0-.22,0l-.13,0a.3.3,0,0,0-.09.1.73.73,0,0,0,0,.25Z"/><path class="cls-2" d="M90.54,27.11a.38.38,0,0,1,0-.1s0-.06,0-.1a.81.81,0,0,1-.32.21,1,1,0,0,1-.33.06.57.57,0,0,1-.44-.17.56.56,0,0,1-.16-.41.58.58,0,0,1,.11-.37.73.73,0,0,1,.28-.24,1.57,1.57,0,0,1,.4-.14,1.59,1.59,0,0,1,.43-.06v-.23a1.25,1.25,0,0,0,0-.21.3.3,0,0,0-.1-.14.24.24,0,0,0-.19-.05.51.51,0,0,0-.17,0,.38.38,0,0,0-.13.09.15.15,0,0,1,0,.09.22.22,0,0,1,0,.08.27.27,0,0,1-.07.18.27.27,0,0,1-.22.09.26.26,0,0,1-.21-.09.38.38,0,0,1-.07-.21.42.42,0,0,1,.13-.3.76.76,0,0,1,.34-.21,1.35,1.35,0,0,1,.46-.07.74.74,0,0,1,.82.84v.26a1.48,1.48,0,0,1,0,.21v.43c0,.07,0,.14,0,.21h.29v.33Zm-.05-1-.23,0a.48.48,0,0,0-.19.09.3.3,0,0,0-.13.12.34.34,0,0,0,0,.17.22.22,0,0,0,.08.18.34.34,0,0,0,.17.05.41.41,0,0,0,.19,0,.61.61,0,0,0,.16-.12V26.1Z"/><path class="cls-2" d="M92.46,27.18a1,1,0,0,1-.25,0A.43.43,0,0,1,92,27a.52.52,0,0,1-.16-.25,1.33,1.33,0,0,1-.06-.44V25.28h-.3v-.37a.46.46,0,0,0,.27-.09,1,1,0,0,0,.22-.23.79.79,0,0,0,.12-.3h.32v.62H93v.34h-.56v1.08a1.23,1.23,0,0,0,0,.2.38.38,0,0,0,.08.17.22.22,0,0,0,.17.06.49.49,0,0,0,.17,0,.66.66,0,0,0,.23-.22l.21.2A1.31,1.31,0,0,1,93,27a1,1,0,0,1-.24.14.63.63,0,0,1-.21.05Z"/><path class="cls-2" d="M94.32,27.18a1.09,1.09,0,0,1-.26,0,.53.53,0,0,1-.22-.12.59.59,0,0,1-.15-.25,1.33,1.33,0,0,1-.06-.44V25.28h-.3v-.37a.43.43,0,0,0,.26-.09.8.8,0,0,0,.22-.23.79.79,0,0,0,.12-.3h.33v.62h.56v.34h-.56v1.08a1.23,1.23,0,0,0,0,.2.3.3,0,0,0,.08.17.2.2,0,0,0,.16.06.45.45,0,0,0,.17,0,.66.66,0,0,0,.23-.22l.22.2a1.66,1.66,0,0,1-.25.27,1.28,1.28,0,0,1-.25.14.53.53,0,0,1-.2.05Z"/><path class="cls-2" d="M96.31,27.18a1.15,1.15,0,0,1-.57-.14.94.94,0,0,1-.38-.41,1.21,1.21,0,0,1-.14-.62,1.15,1.15,0,0,1,.14-.57,1.24,1.24,0,0,1,.38-.44,1.12,1.12,0,0,1,.58-.16,1.49,1.49,0,0,1,.36.05.83.83,0,0,1,.32.17.93.93,0,0,1,.23.34,1.38,1.38,0,0,1,.08.53l-1.44,0a1.44,1.44,0,0,0,.06.43.53.53,0,0,0,.56.41l.2,0a1.46,1.46,0,0,0,.23-.1,1,1,0,0,0,.21-.2l.2.18A1.27,1.27,0,0,1,97,27a1.11,1.11,0,0,1-.36.15A1.27,1.27,0,0,1,96.31,27.18Zm-.42-1.53h.81a.78.78,0,0,0,0-.3.31.31,0,0,0-.12-.15.32.32,0,0,0-.19-.05.34.34,0,0,0-.3.14A.74.74,0,0,0,95.89,25.65Z"/><path class="cls-2" d="M97.63,26.82a.3.3,0,0,0,.18,0,.46.46,0,0,0,.07-.14,1.34,1.34,0,0,0,0-.21v-.91c0-.07,0-.14,0-.2H97.6V25h.18a1.46,1.46,0,0,0,.31,0,.47.47,0,0,0,.19-.09h.21a1.32,1.32,0,0,1,0,.16v.22a1.79,1.79,0,0,1,.22-.24,1.35,1.35,0,0,1,.21-.13.52.52,0,0,1,.21,0,.4.4,0,0,1,.27.09.31.31,0,0,1,.12.28.31.31,0,0,1,0,.13.4.4,0,0,1-.1.12.27.27,0,0,1-.18.05.31.31,0,0,1-.18-.05.24.24,0,0,1-.11-.2.23.23,0,0,0-.17.07,1.29,1.29,0,0,0-.16.17.85.85,0,0,0-.1.18v.9c0,.07,0,.14,0,.21h.28v.33H97.63Z"/><path class="cls-2" d="M99.65,28.3a.49.49,0,0,1-.36-.11.32.32,0,0,1-.11-.25.31.31,0,0,1,.07-.2.28.28,0,0,1,.2-.1.27.27,0,0,1,.2.07.26.26,0,0,1,.07.19V28l.08,0a.14.14,0,0,0,.12-.06.5.5,0,0,0,0-.13.76.76,0,0,0,0-.14V25.52a1.41,1.41,0,0,0,0-.2h-.3V25l.34,0,.22-.06.12-.05h.23V27.1a1.61,1.61,0,0,1-.12.67.83.83,0,0,1-.33.4A.86.86,0,0,1,99.65,28.3Zm.62-3.78a.34.34,0,0,1-.25-.11.37.37,0,0,1-.09-.25.35.35,0,0,1,.1-.26.33.33,0,0,1,.24-.1.29.29,0,0,1,.23.1.4.4,0,0,1,.1.26.37.37,0,0,1-.09.25A.3.3,0,0,1,100.27,24.52Z"/><path class="cls-2" d="M102.11,27.18a1.13,1.13,0,0,1-.56-.14,1,1,0,0,1-.39-.41A1.32,1.32,0,0,1,101,26a1.25,1.25,0,0,1,.13-.57,1.17,1.17,0,0,1,.39-.44,1.09,1.09,0,0,1,.58-.16,1.49,1.49,0,0,1,.36.05.9.9,0,0,1,.32.17,1.07,1.07,0,0,1,.23.34,1.6,1.6,0,0,1,.08.53l-1.45,0a1.44,1.44,0,0,0,.06.43.59.59,0,0,0,.2.3.57.57,0,0,0,.36.11l.2,0a.94.94,0,0,0,.23-.1,1,1,0,0,0,.22-.2l.2.18a1.42,1.42,0,0,1-.34.35,1.11,1.11,0,0,1-.36.15A1.35,1.35,0,0,1,102.11,27.18Zm-.41-1.53h.81a.78.78,0,0,0-.05-.3.28.28,0,0,0-.13-.15.27.27,0,0,0-.18-.05.34.34,0,0,0-.3.14A.66.66,0,0,0,101.7,25.65Z"/><path class="cls-2" d="M104.46,27.18a1.2,1.2,0,0,1-.57-.14,1,1,0,0,1-.38-.41,1.32,1.32,0,0,1-.13-.62,1.25,1.25,0,0,1,.13-.57,1.17,1.17,0,0,1,.39-.44,1.09,1.09,0,0,1,.58-.16,1.49,1.49,0,0,1,.36.05.76.76,0,0,1,.54.51,1.36,1.36,0,0,1,.09.53L104,26a1.44,1.44,0,0,0,.06.43.59.59,0,0,0,.2.3.57.57,0,0,0,.36.11l.2,0a1.15,1.15,0,0,0,.23-.1,1,1,0,0,0,.22-.2l.2.18a1.42,1.42,0,0,1-.34.35,1.11,1.11,0,0,1-.36.15A1.35,1.35,0,0,1,104.46,27.18Zm-.41-1.53h.81a.78.78,0,0,0,0-.3.28.28,0,0,0-.13-.15.27.27,0,0,0-.18-.05.37.37,0,0,0-.31.14A.74.74,0,0,0,104.05,25.65Z"/><path class="cls-2" d="M107,26.82a.4.4,0,0,0,.17,0,.15.15,0,0,0,.11-.1.72.72,0,0,0,0-.25V24.52a1.1,1.1,0,0,0,0-.16H107V24h1.25a2,2,0,0,1,.68.1.87.87,0,0,1,.59.9.89.89,0,0,1-.08.35,1,1,0,0,1-.24.3,1.1,1.1,0,0,1-.38.23,1.8,1.8,0,0,1-.55.1h-.32v.62c0,.07,0,.13,0,.17h.37v.34H107Zm1-1.15h.2a.92.92,0,0,0,.4-.08.51.51,0,0,0,.22-.24.86.86,0,0,0,.07-.38.85.85,0,0,0-.06-.35.53.53,0,0,0-.15-.2.5.5,0,0,0-.2-.08l-.18,0-.16,0a.19.19,0,0,0-.1.1.63.63,0,0,0,0,.23Z"/><path class="cls-2" d="M111.05,26.82a.3.3,0,0,0,.18,0,.31.31,0,0,0,.07-.14,1.34,1.34,0,0,0,0-.21v-.62a1,1,0,0,0-.09-.43.3.3,0,0,0-.27-.13.6.6,0,0,0-.22,0,.81.81,0,0,0-.18.12v1.17c0,.07,0,.14,0,.21h.29v.33h-1.15v-.29a.18.18,0,0,0,.24-.18,1.25,1.25,0,0,0,0-.21v-2c0-.07,0-.13,0-.2h-.3v-.33l.34,0,.22,0a.27.27,0,0,0,.11-.06h.24v1.3a1.37,1.37,0,0,1,.2-.13l.24-.09.2,0a.7.7,0,0,1,.58.23,1.3,1.3,0,0,1,.17.74v.59a1.36,1.36,0,0,1,0,.18,1.48,1.48,0,0,1,0,.21h.29v.33h-1.16Z"/><path class="cls-2" d="M113.69,27.11s0-.07,0-.1v-.1a.89.89,0,0,1-.32.21,1,1,0,0,1-.34.06.57.57,0,0,1-.44-.17.56.56,0,0,1-.16-.41.65.65,0,0,1,.11-.37.81.81,0,0,1,.28-.24,1.72,1.72,0,0,1,.4-.14,1.67,1.67,0,0,1,.44-.06v-.23a.66.66,0,0,0,0-.21.24.24,0,0,0-.1-.14.23.23,0,0,0-.19-.05.45.45,0,0,0-.16,0,.42.42,0,0,0-.14.09.16.16,0,0,1,0,.09s0,.05,0,.08a.29.29,0,0,1-.08.18.25.25,0,0,1-.22.09.24.24,0,0,1-.2-.09.31.31,0,0,1-.07-.21.41.41,0,0,1,.12-.3.89.89,0,0,1,.34-.21,1.41,1.41,0,0,1,.47-.07.89.89,0,0,1,.6.2.85.85,0,0,1,.21.64v.72s0,.1,0,.18,0,.14,0,.21h.28v.33Zm0-1-.23,0a.56.56,0,0,0-.19.09.37.37,0,0,0-.13.12.33.33,0,0,0,0,.17.22.22,0,0,0,.08.18.31.31,0,0,0,.17.05.43.43,0,0,0,.19,0,.57.57,0,0,0,.15-.12V26.1Z"/><path class="cls-2" d="M114.78,26.82a.25.25,0,0,0,.17,0,.23.23,0,0,0,.07-.14,1.25,1.25,0,0,0,0-.21v-.91c0-.07,0-.14,0-.2h-.31V25h.18a1.37,1.37,0,0,0,.31,0,.47.47,0,0,0,.19-.09h.22s0,.08,0,.16,0,.15,0,.22a1.31,1.31,0,0,1,.22-.24.8.8,0,0,1,.21-.13.52.52,0,0,1,.21,0,.44.44,0,0,1,.27.09.33.33,0,0,1,.11.28.31.31,0,0,1,0,.13.23.23,0,0,1-.1.12.24.24,0,0,1-.18.05.31.31,0,0,1-.18-.05.23.23,0,0,1-.1-.2.27.27,0,0,0-.18.07,1.29,1.29,0,0,0-.16.17,1.5,1.5,0,0,0-.09.18v.9c0,.07,0,.14,0,.21h.29v.33h-1.15Z"/><path class="cls-2" d="M116.89,27.11v-.29a.25.25,0,0,0,.17,0,.23.23,0,0,0,.07-.14,1.25,1.25,0,0,0,0-.21v-.91c0-.07,0-.14,0-.2h-.3V25l.34,0,.22-.06.11-.05h.22a.34.34,0,0,1,0,.11.37.37,0,0,0,0,.11,1,1,0,0,1,.32-.18.82.82,0,0,1,.33-.07.67.67,0,0,1,.33.07.5.5,0,0,1,.21.22,1.41,1.41,0,0,1,.35-.21,1,1,0,0,1,.37-.08.7.7,0,0,1,.54.2,1.1,1.1,0,0,1,.18.71v.83c0,.07,0,.14,0,.21h.29v.33h-1.11v-.29a.2.2,0,0,0,.14,0,.18.18,0,0,0,.06-.14,1.25,1.25,0,0,0,0-.21v-.67a.75.75,0,0,0-.1-.4.3.3,0,0,0-.24-.11.52.52,0,0,0-.21,0,.77.77,0,0,0-.18.1.64.64,0,0,1,0,.2,1.55,1.55,0,0,1,0,.22v.77c0,.07,0,.14,0,.21h.29v.33h-1.14v-.29a.25.25,0,0,0,.17,0,.3.3,0,0,0,.06-.14,1.25,1.25,0,0,0,0-.21v-.68a.77.77,0,0,0-.08-.4.3.3,0,0,0-.24-.1.45.45,0,0,0-.2,0,1,1,0,0,0-.17.12v1.17c0,.07,0,.14,0,.21H118v.33Z"/><path class="cls-2" d="M122.16,27.11a.38.38,0,0,1,0-.1.31.31,0,0,1,0-.1.89.89,0,0,1-.32.21,1,1,0,0,1-.34.06A.6.6,0,0,1,121,27a.59.59,0,0,1-.15-.41.64.64,0,0,1,.1-.37.85.85,0,0,1,.29-.24,1.57,1.57,0,0,1,.4-.14,1.59,1.59,0,0,1,.43-.06v-.23a1.25,1.25,0,0,0,0-.21.3.3,0,0,0-.1-.14.24.24,0,0,0-.19-.05.51.51,0,0,0-.17,0,.38.38,0,0,0-.13.09.15.15,0,0,1,0,.09.22.22,0,0,1,0,.08.27.27,0,0,1-.07.18.27.27,0,0,1-.22.09.26.26,0,0,1-.21-.09.38.38,0,0,1,.06-.51.78.78,0,0,1,.33-.21,1.45,1.45,0,0,1,.47-.07.73.73,0,0,1,.81.84v.9c0,.07,0,.14,0,.21H123v.33Zm0-1-.23,0a.61.61,0,0,0-.2.09.34.34,0,0,0-.12.12.34.34,0,0,0,0,.17.22.22,0,0,0,.08.18.34.34,0,0,0,.17.05.41.41,0,0,0,.19,0,.61.61,0,0,0,.16-.12V26.1Z"/><path class="cls-2" d="M124.28,27.18a1.08,1.08,0,0,1-.54-.13,1,1,0,0,1-.4-.38,1.17,1.17,0,0,1-.14-.61,1.19,1.19,0,0,1,.08-.47,1.09,1.09,0,0,1,.23-.39,1.18,1.18,0,0,1,.37-.26,1,1,0,0,1,.46-.1,1.09,1.09,0,0,1,.47.09.63.63,0,0,1,.28.22.52.52,0,0,1,.09.29.37.37,0,0,1-.07.23.26.26,0,0,1-.22.1.24.24,0,0,1-.23-.09.32.32,0,0,1-.07-.19.38.38,0,0,1,0-.1l0-.1a.2.2,0,0,0-.09-.09l-.12-.05h-.11a.46.46,0,0,0-.35.21,1,1,0,0,0-.13.57,1.77,1.77,0,0,0,0,.41.69.69,0,0,0,.19.32.5.5,0,0,0,.34.13.85.85,0,0,0,.66-.34l.2.2A1.29,1.29,0,0,1,125,27a1,1,0,0,1-.34.16A1.24,1.24,0,0,1,124.28,27.18Z"/><path class="cls-2" d="M126.54,27.18A1.13,1.13,0,0,1,126,27a1,1,0,0,1-.39-.41,1.32,1.32,0,0,1-.13-.62,1.25,1.25,0,0,1,.13-.57A1.17,1.17,0,0,1,126,25a1.09,1.09,0,0,1,.58-.16,1.49,1.49,0,0,1,.36.05.9.9,0,0,1,.32.17,1.07,1.07,0,0,1,.23.34,1.6,1.6,0,0,1,.08.53l-1.45,0a1.44,1.44,0,0,0,.06.43.59.59,0,0,0,.2.3.57.57,0,0,0,.36.11l.2,0a.94.94,0,0,0,.23-.1,1,1,0,0,0,.22-.2l.2.18a1.42,1.42,0,0,1-.34.35,1.11,1.11,0,0,1-.36.15A1.35,1.35,0,0,1,126.54,27.18Zm-.41-1.53h.81a.78.78,0,0,0,0-.3.28.28,0,0,0-.13-.15.27.27,0,0,0-.18-.05.34.34,0,0,0-.3.14A.66.66,0,0,0,126.13,25.65Z"/><path class="cls-2" d="M128.78,27.18a.78.78,0,0,1-.43-.1.61.61,0,0,1-.23-.32,1.71,1.71,0,0,1-.07-.55v-.89h-.31V25h0a2.33,2.33,0,0,0,.43,0,.54.54,0,0,0,.2-.09h.24v1.34a1,1,0,0,0,.08.43.26.26,0,0,0,.24.14.55.55,0,0,0,.23-.07.7.7,0,0,0,.19-.15v-1c0-.07,0-.14,0-.2h-.31V25h.1a1.38,1.38,0,0,0,.37-.05.88.88,0,0,0,.2-.08H130v1.71a1.49,1.49,0,0,1,0,.21h.29v.33h-.83s0-.08,0-.11,0-.08,0-.12a1.94,1.94,0,0,1-.29.21A.75.75,0,0,1,128.78,27.18Z"/><path class="cls-2" d="M131.46,27.18a1.09,1.09,0,0,1-.26,0A.53.53,0,0,1,131,27a.59.59,0,0,1-.15-.25,1.33,1.33,0,0,1-.06-.44V25.28h-.3v-.37a.48.48,0,0,0,.27-.09.93.93,0,0,0,.21-.23.79.79,0,0,0,.12-.3h.33v.62H132v.34h-.55v1.08a1.23,1.23,0,0,0,0,.2.3.3,0,0,0,.08.17.21.21,0,0,0,.16.06.41.41,0,0,0,.17,0,.59.59,0,0,0,.23-.22l.22.2A1.66,1.66,0,0,1,132,27a1.62,1.62,0,0,1-.24.14.63.63,0,0,1-.21.05Z"/><path class="cls-2" d="M132.4,26.82a.28.28,0,0,0,.18,0,.31.31,0,0,0,.07-.14,1.34,1.34,0,0,0,0-.21V25.7a1.21,1.21,0,0,1,0-.18,1.27,1.27,0,0,1,0-.2h-.31V25l.35,0,.22-.06.11-.05h.24V26.4a1.36,1.36,0,0,1,0,.18,1.48,1.48,0,0,1,0,.21h.29v.33H132.4Zm.55-2.3a.3.3,0,0,1-.24-.11.33.33,0,0,1-.1-.25.35.35,0,0,1,.1-.26.33.33,0,0,1,.24-.1.29.29,0,0,1,.23.1.35.35,0,0,1,.1.26.37.37,0,0,1-.09.25A.3.3,0,0,1,133,24.52Z"/><path class="cls-2" d="M134.88,27.18a1.08,1.08,0,0,1-.54-.13,1,1,0,0,1-.39-.38,1.17,1.17,0,0,1-.15-.61,1.4,1.4,0,0,1,.08-.47,1.28,1.28,0,0,1,.24-.39,1,1,0,0,1,.36-.26,1,1,0,0,1,.46-.1,1.06,1.06,0,0,1,.47.09.63.63,0,0,1,.28.22.46.46,0,0,1,.1.29.38.38,0,0,1-.08.23.25.25,0,0,1-.22.1.24.24,0,0,1-.23-.09.32.32,0,0,1-.07-.19.44.44,0,0,1,0-.1.21.21,0,0,1,0-.1.28.28,0,0,0-.1-.09l-.12-.05h-.11a.44.44,0,0,0-.34.21,1,1,0,0,0-.14.57,1.35,1.35,0,0,0,.06.41.6.6,0,0,0,.18.32.52.52,0,0,0,.34.13.85.85,0,0,0,.66-.34l.2.2a1.15,1.15,0,0,1-.33.33,1,1,0,0,1-.34.16A1.24,1.24,0,0,1,134.88,27.18Z"/><path class="cls-2" d="M137.34,27.11s0-.07,0-.1v-.1a.89.89,0,0,1-.32.21,1,1,0,0,1-.34.06.59.59,0,0,1-.44-.17.6.6,0,0,1-.16-.41.65.65,0,0,1,.11-.37.76.76,0,0,1,.29-.24,1.64,1.64,0,0,1,.39-.14,1.67,1.67,0,0,1,.44-.06v-.23a.66.66,0,0,0,0-.21.28.28,0,0,0-.09-.14.25.25,0,0,0-.2-.05.45.45,0,0,0-.16,0,.3.3,0,0,0-.13.09.25.25,0,0,1,0,.09s0,.05,0,.08a.34.34,0,0,1-.07.18.27.27,0,0,1-.23.09.25.25,0,0,1-.2-.09.31.31,0,0,1-.07-.21.38.38,0,0,1,.13-.3.78.78,0,0,1,.33-.21,1.41,1.41,0,0,1,.47-.07.73.73,0,0,1,.81.84v.72a1.36,1.36,0,0,1,0,.18,1.48,1.48,0,0,1,0,.21h.29v.33Zm-.05-1-.24,0a.66.66,0,0,0-.19.09.49.49,0,0,0-.13.12.33.33,0,0,0,0,.17.22.22,0,0,0,.08.18.34.34,0,0,0,.17.05.41.41,0,0,0,.19,0,.61.61,0,0,0,.16-.12V26.1Z"/><path class="cls-2" d="M138.35,26.82a.3.3,0,0,0,.18,0,.22.22,0,0,0,.06-.14,1.25,1.25,0,0,0,0-.21v-2c0-.07,0-.13,0-.2h-.3v-.33l.34,0,.22,0a.27.27,0,0,0,.11-.06h.24v2.79c0,.07,0,.14,0,.21h.29v.33h-1.15Z"/></g></g></svg>